<svg width="79" height="40" viewBox="0 0 79 40" version="1.1" xmlns="http://www.w3.org/2000/svg" xmlns:xlink="http://www.w3.org/1999/xlink">
<title>LOGO.svg</title>
<desc>Created using Figma</desc>
<g id="Canvas" transform="translate(-642 706)">
<g id="LOGO">
<g id="Ellipse">
<mask id="mask0_outline_ins">
<use xlink:href="#path0_fill" fill="white" transform="translate(642 -706)"/>
</mask>
<g mask="url(#mask0_outline_ins)">
<use xlink:href="#path1_stroke_2x" transform="translate(642 -706)" fill="#219653"/>
</g>
</g>
<g id="RE">
<use xlink:href="#path2_fill" transform="translate(642 -706)" fill="#FFFFFF"/>
</g>
<g id="WEB">
<use xlink:href="#path3_fill" transform="translate(685 -706)" fill="#FFFFFF"/>
</g>
</g>
</g>
<defs>
<path id="path0_fill" d="M 40 20C 40 31.0457 31.0457 40 20 40C 8.95431 40 0 31.0457 0 20C 0 8.95431 8.95431 0 20 0C 31.0457 0 40 8.95431 40 20Z"/>
<path id="path1_stroke_2x" d="M 38 20C 38 29.9411 29.9411 38 20 38L 20 42C 32.1503 42 42 32.1503 42 20L 38 20ZM 20 38C 10.0589 38 2 29.9411 2 20L -2 20C -2 32.1503 7.84974 42 20 42L 20 38ZM 2 20C 2 10.0589 10.0589 2 20 2L 20 -2C 7.84974 -2 -2 7.84974 -2 20L 2 20ZM 20 2C 29.9411 2 38 10.0589 38 20L 42 20C 42 7.84974 32.1503 -2 20 -2L 20 2Z"/>
<path id="path2_fill" d="M 17.0569 25L 15.6289 22.284L 15.5729 22.284L 13.7249 22.284L 13.7249 25L 11.1629 25L 11.1629 15.186L 15.5729 15.186C 16.8703 15.186 17.8736 15.4893 18.5829 16.096C 19.3016 16.6933 19.6609 17.538 19.6609 18.63C 19.6609 19.3673 19.5116 20.0067 19.2129 20.548C 18.9143 21.08 18.4803 21.4953 17.9109 21.794L 19.9549 25L 17.0569 25ZM 13.7249 20.24L 15.5869 20.24C 16.1096 20.24 16.5109 20.1093 16.7909 19.848C 17.0803 19.5867 17.2249 19.2087 17.2249 18.714C 17.2249 18.238 17.0803 17.874 16.7909 17.622C 16.5109 17.3607 16.1096 17.23 15.5869 17.23L 13.7249 17.23L 13.7249 20.24ZM 21.2938 15.186L 29.0358 15.186L 29.0358 17.23L 23.8558 17.23L 23.8558 19.064L 28.5318 19.064L 28.5318 21.094L 23.8558 21.108L 23.8558 22.956L 29.1758 22.956L 29.1758 25L 21.2938 25L 21.2938 15.186Z"/>
<path id="path3_fill" d="M 13.4507 15.186L 16.0827 15.186L 12.7647 25L 10.1327 25L 8.27066 18.322L 6.38066 25L 3.74866 25L 0.444656 15.186L 3.20266 15.186L 5.13466 22.354L 7.06666 15.186L 9.57266 15.186L 11.5327 22.354L 13.4507 15.186ZM 17.0106 15.186L 24.7526 15.186L 24.7526 17.23L 19.5726 17.23L 19.5726 19.064L 24.2486 19.064L 24.2486 21.094L 19.5726 21.108L 19.5726 22.956L 24.8926 22.956L 24.8926 25L 17.0106 25L 17.0106 15.186ZM 31.1199 15.186C 31.8572 15.186 32.4965 15.2887 33.0379 15.494C 33.5885 15.69 34.0132 15.9747 34.3119 16.348C 34.6105 16.7213 34.7599 17.16 34.7599 17.664C 34.7599 18.1773 34.6059 18.6253 34.2979 19.008C 33.9992 19.3907 33.5885 19.652 33.0659 19.792C 33.6912 19.9133 34.1812 20.198 34.5359 20.646C 34.8999 21.094 35.0819 21.6353 35.0819 22.27C 35.0819 22.8207 34.9279 23.306 34.6199 23.726C 34.3119 24.1367 33.8732 24.454 33.3039 24.678C 32.7345 24.8927 32.0672 25 31.3019 25L 26.4579 25L 26.4579 15.186L 31.1199 15.186ZM 30.9799 19.092C 31.3345 19.092 31.6145 19.008 31.8199 18.84C 32.0252 18.6627 32.1279 18.42 32.1279 18.112C 32.1279 17.8133 32.0252 17.5847 31.8199 17.426C 31.6145 17.258 31.3345 17.1787 30.9799 17.188L 29.0199 17.188L 29.0199 19.092L 30.9799 19.092ZM 30.9799 23.012C 31.4279 23.012 31.7825 22.9187 32.0439 22.732C 32.3052 22.5453 32.4359 22.284 32.4359 21.948C 32.4359 21.64 32.3052 21.3973 32.0439 21.22C 31.7825 21.0333 31.4279 20.9447 30.9799 20.954L 29.0199 20.954L 29.0199 23.012L 30.9799 23.012Z"/>
</defs>
</svg>
