<svg width="63" height="63" viewBox="0 0 63 63" version="1.1" xmlns="http://www.w3.org/2000/svg" xmlns:xlink="http://www.w3.org/1999/xlink">
<title>wordpress</title>
<desc>Created using Figma</desc>
<g id="Canvas" transform="translate(-2082 209)">
<g id="wordpress">
<g id="Group">
<g id="Vector">
<use xlink:href="#path0_fill" transform="translate(2091.56 -203.857)" fill="#F2F2F2"/>
</g>
<g id="Vector">
<use xlink:href="#path1_fill" transform="translate(2087.14 -187.838)" fill="#F2F2F2"/>
</g>
<g id="Vector">
<use xlink:href="#path2_fill" transform="translate(2125.89 -190.488)" fill="#F2F2F2"/>
</g>
<g id="Vector">
<use xlink:href="#path3_fill" transform="translate(2105.37 -174.103)" fill="#F2F2F2"/>
</g>
<g id="Vector">
<use xlink:href="#path4_fill" transform="translate(2082 -209)" fill="#F2F2F2"/>
</g>
</g>
</g>
</g>
<defs>
<path id="path0_fill" d="M 9.33558 14.2996L 5.85651 14.2996L 15.3414 41.1112L 20.6513 25.9372L 16.5345 14.2996L 12.8638 14.2996L 12.8638 11.7449L 29.1189 11.7449L 29.1189 14.2996L 25.3124 14.2996L 34.7971 41.1112L 38.2065 31.3681C 42.679 18.8852 34.5408 14.9968 34.5408 12.2109C 34.5408 9.4251 36.7992 7.16684 39.5849 7.16684C 39.7357 7.16684 39.882 7.175 40.0254 7.18837C 35.3053 2.73251 28.9406 4.72414e-08 21.9372 4.72414e-08C 12.7861 4.72414e-08 4.72534 4.66456 -5.0677e-07 11.7449L 9.33529 11.7449L 9.33529 14.2996L 9.33558 14.2996Z"/>
<path id="path1_fill" d="M 4.72413e-08 10.338C 4.72413e-08 20.4287 5.6716 29.1935 14 33.6225L 2.1057 9.96363e-07C 0.750781 3.17426 4.72413e-08 6.66838 4.72413e-08 10.338Z"/>
<path id="path2_fill" d="M 10.5496 -4.12288e-07C 10.9266 2.21984 10.8125 4.7148 10.234 7.21947L 10.3388 7.21947L 9.94028 8.35824C 9.70414 9.18051 9.40678 10.0216 9.06904 10.8481L 1.61479e-06 36.2553C 8.31094 31.8209 13.968 23.0656 13.968 12.9876C 13.968 8.26522 12.7249 3.83356 10.5496 -4.12288e-07Z"/>
<path id="path3_fill" d="M -4.29466e-07 21.6799C 2.56053 22.5094 5.29177 22.9593 8.1287 22.9593C 10.8346 22.9593 13.445 22.5509 15.9023 21.7934L 8.19273 7.04326e-07L -4.29466e-07 21.6799Z"/>
<path id="path4_fill" d="M 53.7738 9.22611C 47.8242 3.27656 39.9138 0 31.4999 0C 23.0859 0 15.1756 3.27656 9.22609 9.22611C 3.27656 15.1757 0 23.086 0 31.5001C 0 39.914 3.27656 47.8243 9.22609 53.7739C 15.1756 59.7234 23.086 63 31.5 63C 39.914 63 47.8242 59.7234 53.7739 53.7739C 59.7234 47.8243 63 39.9139 63 31.5001C 62.9999 23.086 59.7233 15.1757 53.7738 9.22611ZM 31.4999 60.7779C 15.356 60.7779 2.22209 47.6439 2.22209 31.5001C 2.22209 15.3562 15.356 2.22209 31.4999 2.22209C 47.6437 2.22209 60.7776 15.3562 60.7776 31.5001C 60.7776 47.6439 47.6438 60.7779 31.4999 60.7779Z"/>
</defs>
</svg>
