<svg width="60" height="54" viewBox="0 0 60 54" version="1.1" xmlns="http://www.w3.org/2000/svg" xmlns:xlink="http://www.w3.org/1999/xlink">
<title>AAA</title>
<desc>Created using Figma</desc>
<g id="Canvas" transform="translate(-2031 307)">
<g id="XMLID 66">
<g id="XMLID 117">
<use xlink:href="#path0_fill" transform="translate(2031 -288.948)" fill="#2D3039"/>
</g>
<g id="XMLID 116">
<use xlink:href="#path1_fill" transform="translate(2035.05 -292.797)" fill="#E74C3D"/>
</g>
<g id="XMLID 115">
<use xlink:href="#path2_fill" transform="translate(2051.05 -307)" fill="#ECF0F1"/>
</g>
<g id="XMLID 114">
<use xlink:href="#path3_fill" transform="translate(2079 -288.948)" fill="#E74C3D"/>
</g>
<g id="XMLID 113">
<use xlink:href="#path4_fill" transform="translate(2086 -290.948)" fill="#D1D4D2"/>
</g>
<g id="XMLID 112">
<use xlink:href="#path5_fill" transform="translate(2039.05 -275.524)" fill="#C03B2B"/>
</g>
<g id="XMLID 111">
<use xlink:href="#path6_fill" transform="translate(2039.05 -259.948)" fill="#E74C3D"/>
</g>
<g id="XMLID 110">
<use xlink:href="#path6_fill" transform="translate(2039.05 -263.948)" fill="#E74C3D"/>
</g>
<g id="XMLID 109">
<use xlink:href="#path6_fill" transform="translate(2039.05 -267.948)" fill="#E74C3D"/>
</g>
<g id="XMLID 108">
<use xlink:href="#path6_fill" transform="translate(2039.05 -271.948)" fill="#E74C3D"/>
</g>
<g id="XMLID 107">
<use xlink:href="#path7_fill" transform="translate(2071 -307)" fill="#556180"/>
</g>
<g id="XMLID 106">
<use xlink:href="#path8_fill" transform="translate(2054 -295.949)" fill="#FFFFFF"/>
</g>
<g id="XMLID 105">
<use xlink:href="#path9_fill" transform="translate(2054 -285.948)" fill="#FFFFFF"/>
</g>
</g>
</g>
<defs>
<path id="path0_fill" d="M 4 10L 2.211 10C 0.99 10 0 9.01 0 7.789L 0 2.211C 0 0.99 0.99 -3.35693e-07 2.211 -3.35693e-07L 4 -3.35693e-07L 4 10Z"/>
<path id="path1_fill" d="M 16.001 18L 2.597 17.185C 1.134 17.081 1.18256e-07 15.864 1.18256e-07 14.397L 1.18256e-07 3.262C 1.18256e-07 1.987 0.985 0.929999 2.256 0.838999L 16 6.40869e-07L 16 18L 16.001 18Z"/>
<path id="path2_fill" d="M 21.947 45.1757L 2.313 35.3587C 0.896 34.6497 5.95093e-07 33.2017 5.95093e-07 31.6177L 5.95093e-07 14.7067C 5.95093e-07 13.1647 0.849001 11.7477 2.208 11.0197L 21.843 0.501666C 24.63 -0.991334 28.001 1.02767 28.001 4.18767L 28.001 41.4337C 28.001 44.5437 24.728 46.5667 21.947 45.1757Z"/>
<path id="path3_fill" d="M 1 -3.35693e-07L 0 -3.35693e-07L 0 10L 1 10C 3.2 10 5 8.2 5 6L 5 4C 5 1.8 3.2 -3.35693e-07 1 -3.35693e-07Z"/>
<path id="path4_fill" d="M 0.999006 13.9996C 0.798006 13.9996 0.594006 13.9386 0.417006 13.8126C -0.0309943 13.4906 -0.134994 12.8656 0.188006 12.4166C 0.754006 11.6266 2.06501 9.51961 2.00101 7.02561C 1.95101 5.04961 1.34 3.2166 0.184004 1.5756C -0.133996 1.1236 -0.0259949 0.500605 0.425005 0.182605C 0.876005 -0.135395 1.50101 -0.0273957 1.81901 0.423604C 3.20701 2.3936 3.941 4.5976 4.002 6.97461C 4.082 10.0726 2.49901 12.6276 1.81401 13.5826C 1.61701 13.8546 1.31101 13.9996 0.999006 13.9996Z"/>
<path id="path5_fill" d="M 4.57764e-08 -5.49316e-07L 4.57764e-08 3.577L 3 3.577C 3.552 3.577 4 4.024 4 4.577C 4 5.129 3.552 5.577 3 5.577L 4.57764e-08 5.577L 4.57764e-08 7.577L 3 7.577C 3.552 7.577 4 8.024 4 8.577C 4 9.129 3.552 9.577 3 9.577L 4.57764e-08 9.577L 4.57764e-08 11.577L 3 11.577C 3.552 11.577 4 12.024 4 12.577C 4 13.129 3.552 13.577 3 13.577L 4.57764e-08 13.577L 4.57764e-08 15.577L 3 15.577C 3.552 15.577 4 16.024 4 16.577C 4 17.129 3.552 17.577 3 17.577L 4.57764e-08 17.577L 4.57764e-08 18.227C 4.57764e-08 20.152 1.575 21.727 3.5 21.727C 5.425 21.727 7 20.152 7 18.227L 7 0.436L 4.57764e-08 -5.49316e-07Z"/>
<path id="path6_fill" d="M 4 1C 4 0.447 3.553 -3.35693e-07 3 -3.35693e-07L 4.57764e-08 -3.35693e-07L 4.57764e-08 2L 3 2C 3.552 2 4 1.553 4 1Z"/>
<path id="path7_fill" d="M 1.842 0.501653L 0 1.48865L 0 44.2027L 1.947 45.1757C 4.728 46.5667 8 44.5447 8 41.4347L 8 4.18865C 8 1.02765 4.628 -0.991347 1.842 0.501653Z"/>
<path id="path8_fill" d="M 7.896 0.557191C 7.651 0.0631907 7.054 -0.141809 6.556 0.104191L 2.105 2.30519C 0.807 3.00019 0 4.34719 0 5.82119L 0 8.00019C 0 8.55319 0.447 9.00019 1 9.00019C 1.553 9.00019 2 8.55319 2 8.00019L 2 5.82119C 2 5.08619 2.402 4.41419 3.021 4.08319L 7.444 1.89719C 7.938 1.65219 8.142 1.05219 7.896 0.557191Z"/>
<path id="path9_fill" d="M 1 -3.35693e-07C 0.447 -3.35693e-07 0 0.447 0 1L 0 3C 0 3.553 0.447 4 1 4C 1.553 4 2 3.553 2 3L 2 1C 2 0.448 1.553 -3.35693e-07 1 -3.35693e-07Z"/>
</defs>
</svg>
