<svg width="63" height="63" viewBox="0 0 63 63" version="1.1" xmlns="http://www.w3.org/2000/svg" xmlns:xlink="http://www.w3.org/1999/xlink">
<title>search</title>
<desc>Created using Figma</desc>
<g id="Canvas" transform="translate(-1999 209)">
<g id="search">
<g id="Vector">
<use xlink:href="#path0_fill" transform="translate(1999 -191.987)" fill="#FBBB00"/>
</g>
<g id="Vector">
<use xlink:href="#path1_fill" transform="translate(2031.19 -183.385)" fill="#518EF8"/>
</g>
<g id="Vector">
<use xlink:href="#path2_fill" transform="translate(2002.75 -170.928)" fill="#28B446"/>
</g>
<g id="Vector">
<use xlink:href="#path3_fill" transform="translate(2002.52 -209)" fill="#F14336"/>
</g>
</g>
</g>
<defs>
<path id="path0_fill" d="M 13.9621 21.0582L 11.7692 29.2448L 3.75404 29.4144C 1.35868 24.9715 0 19.8883 0 14.4866C 0 9.26309 1.27034 4.33728 3.52209 6.60896e-07L 3.52382 6.60896e-07L 10.6596 1.30823L 13.7854 8.40115C 13.1312 10.3085 12.7746 12.356 12.7746 14.4866C 12.7749 16.7989 13.1937 19.0143 13.9621 21.0582Z"/>
<path id="path1_fill" d="M 30.2571 -6.30856e-07C 30.6189 1.9055 30.8075 3.87339 30.8075 5.88459C 30.8075 8.1398 30.5704 10.3396 30.1187 12.4616C 28.5853 19.6823 24.5785 25.9875 19.028 30.4494L 19.0262 30.4477L 10.0384 29.9891L 8.76635 22.0483C 12.4494 19.8883 15.3277 16.5081 16.8439 12.4616L -1.14155e-06 12.4616L -1.14155e-06 -6.30856e-07L 17.0896 -6.30856e-07L 30.2571 -6.30856e-07Z"/>
<path id="path2_fill" d="M 47.4646 17.9913L 47.4663 17.993C 42.0681 22.332 35.2107 24.9282 27.746 24.9282C 15.75 24.9282 5.32042 18.2232 9.57549e-08 8.35611L 10.2081 -4.2057e-07C 12.8682 7.09956 19.7169 12.1535 27.746 12.1535C 31.1971 12.1535 34.4302 11.2205 37.2046 9.59187L 47.4646 17.9913Z"/>
<path id="path3_fill" d="M 48.0843 7.25189L 37.8796 15.6063C 35.0083 13.8115 31.6142 12.7747 27.9779 12.7747C 19.7671 12.7747 12.7904 18.0605 10.2635 25.4146L 0.00172272 17.0134L 6.75917e-08 17.0134C 5.24254 6.90576 15.8036 0 27.9779 0C 35.621 0 42.6289 2.72254 48.0843 7.25189Z"/>
</defs>
</svg>
