<svg width="59" height="56" viewBox="0 0 59 56" version="1.1" xmlns="http://www.w3.org/2000/svg" xmlns:xlink="http://www.w3.org/1999/xlink">
<title>warning</title>
<desc>Created using Figma</desc>
<g id="Canvas" transform="translate(473 -732)">
<g id="warning">
<g id="Vector">
<use xlink:href="#path0_fill" transform="translate(-473 732)" fill="#495A79"/>
</g>
<g id="Vector">
<use xlink:href="#path1_fill" transform="translate(-443.5 732)" fill="#42516D"/>
</g>
<g id="Vector">
<use xlink:href="#path2_fill" transform="translate(-469.543 735.483)" fill="#FFDE33"/>
</g>
<g id="Vector">
<use xlink:href="#path3_fill" transform="translate(-443.5 735.483)" fill="#FFBC33"/>
</g>
<g id="Group">
<g id="Vector">
<use xlink:href="#path4_fill" transform="translate(-446.957 774.07)" fill="#495A79"/>
</g>
<g id="Vector">
<use xlink:href="#path5_fill" transform="translate(-446.957 746.209)" fill="#495A79"/>
</g>
</g>
<g id="Group">
<g id="Vector">
<use xlink:href="#path6_fill" transform="translate(-443.5 774.07)" fill="#42516D"/>
</g>
<g id="Vector">
<use xlink:href="#path7_fill" transform="translate(-443.5 746.209)" fill="#42516D"/>
</g>
</g>
</g>
</g>
<defs>
<path id="path0_fill" d="M 57.7856 42.8357L 36.9327 4.24887C 35.3424 1.60199 32.5768 2.21417e-08 29.5 2.21417e-08C 26.4232 2.21417e-08 23.6576 1.60199 22.0673 4.24887L 1.21444 42.8357C -0.37556 45.5872 -0.410246 48.8608 1.14553 51.6119C 2.70108 54.3631 5.50116 56 8.64718 56L 50.3528 56C 53.4988 56 56.299 54.3631 57.8545 51.6119C 59.4102 48.8608 59.3756 45.5872 57.7856 42.8357Z"/>
<path id="path1_fill" d="M 28.3545 51.6119C 26.7989 54.3631 23.9988 56 20.8528 56L 0 56L 0 2.21417e-08C 3.07676 2.21417e-08 5.84239 1.60211 7.43274 4.24887L 28.2856 42.8358C 29.8756 45.5872 29.9102 48.8608 28.3545 51.6119Z"/>
<path id="path2_fill" d="M 51.3553 41.1294L 30.5022 2.54217C 29.569 0.940298 27.8751 -8.85668e-08 26.0427 -8.85668e-08C 24.2104 -8.85668e-08 22.5165 0.940414 21.5833 2.54217L 0.730241 41.1294C -0.237613 42.7663 -0.237613 44.7511 0.695901 46.3881C 1.62918 48.0596 3.32302 49.0348 5.19004 49.0348L 46.8957 49.0348C 48.7626 49.0348 50.4565 48.0596 51.3898 46.3881C 52.3231 44.7511 52.3231 42.7663 51.3553 41.1294Z"/>
<path id="path3_fill" d="M 25.347 46.3881C 24.4137 48.0596 22.7198 49.0348 20.8528 49.0348L 0 49.0348L 0 -8.85668e-08C 1.83234 -8.85668e-08 3.52629 0.940414 4.45946 2.54217L 25.3125 41.1294C 26.2804 42.7663 26.2804 44.7511 25.347 46.3881Z"/>
<path id="path4_fill" d="M 3.45703 6.96518C 1.55129 6.96518 0 5.40242 0 3.48259C 0 1.56275 1.55129 1.41707e-06 3.45703 1.41707e-06C 5.36278 1.41707e-06 6.91407 1.56275 6.91407 3.48259C 6.91407 5.40242 5.36278 6.96518 3.45703 6.96518Z"/>
<path id="path5_fill" d="M 6.91407 20.8955C 6.91407 22.8154 5.36278 24.3781 3.45703 24.3781C 1.55129 24.3781 0 22.8154 0 20.8955L 0 3.48259C 0 1.56275 1.55129 -3.54267e-07 3.45703 -3.54267e-07C 5.36278 -3.54267e-07 6.91407 1.56275 6.91407 3.48259L 6.91407 20.8955Z"/>
<path id="path6_fill" d="M 3.45703 3.48259C 3.45703 1.56275 1.90575 1.41707e-06 0 1.41707e-06L 0 6.96518C 1.90575 6.96518 3.45703 5.40242 3.45703 3.48259Z"/>
<path id="path7_fill" d="M 3.45703 20.8955L 3.45703 3.48259C 3.45703 1.56275 1.90575 -3.54267e-07 0 -3.54267e-07L 0 24.3781C 1.90575 24.3781 3.45703 22.8154 3.45703 20.8955Z"/>
</defs>
</svg>
