<svg width="55" height="56" viewBox="0 0 55 56" version="1.1" xmlns="http://www.w3.org/2000/svg" xmlns:xlink="http://www.w3.org/1999/xlink">
<title>list.svg</title>
<desc>Created using Figma</desc>
<g id="Canvas" transform="translate(-2200 586)">
<g id="list">
<g id="Group">
<g id="Group">
<g id="Vector">
<use xlink:href="#path0_fill" transform="translate(2200 -586)" fill="#27AE60"/>
</g>
<g id="Vector">
<use xlink:href="#path1_fill" transform="translate(2225 -574)" fill="#FFFFFF"/>
</g>
<g id="Vector">
<use xlink:href="#path1_fill" transform="translate(2225 -560)" fill="#FFFFFF"/>
</g>
<g id="Vector">
<use xlink:href="#path1_fill" transform="translate(2225 -546)" fill="#FFFFFF"/>
</g>
<g id="Vector">
<use xlink:href="#path2_fill" transform="translate(2206.5 -578.999)" fill="#FFFFFF"/>
</g>
<g id="Vector">
<use xlink:href="#path3_fill" transform="translate(2206.5 -564.999)" fill="#FFFFFF"/>
</g>
<g id="Vector">
<use xlink:href="#path4_fill" transform="translate(2206.5 -549.999)" fill="#FFFFFF"/>
</g>
</g>
<g id="Group">
<g id="Vector">
<use xlink:href="#path5_fill" transform="translate(2231 -554)" fill="#333333"/>
</g>
<g id="Vector">
<use xlink:href="#path6_fill" transform="translate(2237 -548.001)" fill="#FFFFFF"/>
</g>
</g>
</g>
</g>
</g>
<defs>
<path id="path0_fill" d="M 43.636 52L 8.364 52C 3.745 52 0 48.255 0 43.636L 0 8.364C 0 3.745 3.745 0 8.364 0L 43.636 0C 48.255 0 52 3.745 52 8.364L 52 43.636C 52 48.255 48.255 52 43.636 52Z"/>
<path id="path1_fill" d="M 19 2L 1 2C 0.448 2 0 1.553 0 1C 0 0.447 0.448 0 1 0L 19 0C 19.552 0 20 0.447 20 1C 20 1.553 19.552 2 19 2Z"/>
<path id="path2_fill" d="M 5.57095 9.99942C 5.36195 9.99942 5.15095 9.93442 4.97095 9.79942L 0.399951 6.37042C -0.0420495 6.03942 -0.13105 5.41242 0.19995 4.97142C 0.53095 4.52942 1.15795 4.44042 1.59995 4.77142L 5.42195 7.63742L 11.67 0.34942C 12.03 -0.0705796 12.662 -0.118579 13.08 0.241421C 13.499 0.600421 13.548 1.23142 13.188 1.65042L 6.33095 9.65042C 6.13295 9.88042 5.85395 9.99942 5.57095 9.99942Z"/>
<path id="path3_fill" d="M 5.57095 9.99942C 5.36195 9.99942 5.15095 9.93442 4.97095 9.79942L 0.399951 6.37042C -0.0420495 6.03942 -0.13105 5.41242 0.19995 4.97142C 0.53095 4.52942 1.15795 4.44042 1.59995 4.77142L 5.42195 7.63742L 11.67 0.349421C 12.03 -0.0705791 12.662 -0.118579 13.08 0.241421C 13.499 0.600421 13.548 1.23142 13.188 1.65042L 6.33095 9.65042C 6.13295 9.88042 5.85395 9.99942 5.57095 9.99942Z"/>
<path id="path4_fill" d="M 5.57095 9.99842C 5.36195 9.99842 5.15095 9.93342 4.97095 9.79842L 0.399951 6.36942C -0.0420495 6.03842 -0.13105 5.41142 0.19995 4.97042C 0.53095 4.52842 1.15795 4.44042 1.59995 4.77042L 5.42195 7.63642L 11.67 0.349419C 12.03 -0.070581 12.662 -0.118579 13.08 0.241421C 13.499 0.600421 13.548 1.23142 13.188 1.65042L 6.33095 9.64942C 6.13295 9.87942 5.85395 9.99842 5.57095 9.99842Z"/>
<path id="path5_fill" d="M 12 24C 18.6274 24 24 18.6274 24 12C 24 5.37258 18.6274 0 12 0C 5.37258 0 0 5.37258 0 12C 0 18.6274 5.37258 24 12 24Z"/>
<path id="path6_fill" d="M 12.5715 0.179569C 12.1165 -0.136431 11.4945 -0.024431 11.1795 0.429569L 5.58347 8.46957L 1.63447 5.22757C 1.20847 4.87657 0.577476 4.93957 0.227476 5.36657C -0.123524 5.79357 -0.0615243 6.42357 0.366476 6.77357L 5.15247 10.7026C 5.33247 10.8496 5.55647 10.9296 5.78647 10.9296C 5.83147 10.9296 5.87747 10.9266 5.92347 10.9206C 6.19947 10.8816 6.44747 10.7306 6.60747 10.5016L 12.8215 1.57257C 13.1365 1.11857 13.0245 0.495569 12.5715 0.179569Z"/>
</defs>
</svg>
