<svg width="59" height="53" viewBox="0 0 59 53" version="1.1" xmlns="http://www.w3.org/2000/svg" xmlns:xlink="http://www.w3.org/1999/xlink">
<title>weekly-calendar</title>
<desc>Created using Figma</desc>
<g id="Canvas" transform="translate(473 -287)">
<g id="weekly-calendar">
<g id="Vector">
<use xlink:href="#path0_fill" transform="translate(-473 289.038)" fill="#EFF2FA"/>
</g>
<g id="Vector">
<use xlink:href="#path1_fill" transform="translate(-473 289.038)" fill="#FF6464"/>
</g>
<g id="Vector">
<use xlink:href="#path2_fill" transform="translate(-473 299.231)" fill="#E4EAF6"/>
</g>
<g id="Vector">
<use xlink:href="#path3_fill" transform="translate(-467.405 290.567)" fill="#D2555A"/>
</g>
<g id="Vector">
<use xlink:href="#path4_fill" transform="translate(-465.879 287)" fill="#C7CFE2"/>
</g>
<g id="Vector">
<use xlink:href="#path5_fill" transform="translate(-465.879 290.567)" fill="#AFB9D2"/>
</g>
<g id="Vector">
<use xlink:href="#path6_fill" transform="translate(-425.698 290.567)" fill="#D2555A"/>
</g>
<g id="Vector">
<use xlink:href="#path7_fill" transform="translate(-424.172 287)" fill="#C7CFE2"/>
</g>
<g id="Vector">
<use xlink:href="#path8_fill" transform="translate(-424.172 290.567)" fill="#AFB9D2"/>
</g>
<g id="Group">
<g id="Vector">
<use xlink:href="#path9_fill" transform="translate(-458.173 307.542)" fill="#FF6464"/>
</g>
<g id="Vector">
<use xlink:href="#path10_fill" transform="translate(-439.124 307.898)" fill="#FF6464"/>
</g>
</g>
</g>
</g>
<defs>
<path id="path0_fill" d="M 56.9655 50.9616L 2.03446 50.9616C 0.910813 50.9616 0 50.049 0 48.9231L 0 2.03844C 0 0.912595 0.910813 5.63769e-08 2.03446 5.63769e-08L 56.9655 5.63769e-08C 58.0892 5.63769e-08 59 0.912595 59 2.03844L 59 48.9231C 59 50.0489 58.0891 50.9616 56.9655 50.9616Z"/>
<path id="path1_fill" d="M 59 10.1923L 0 10.1923L 0 2.03844C 0 0.912594 0.910813 5.63769e-08 2.03446 5.63769e-08L 56.9655 5.63769e-08C 58.0892 5.63769e-08 59 0.912594 59 2.03844L 59 10.1923Z"/>
<path id="path2_fill" d="M 59 0L 0 0L 0 2.03844L 59 2.03844L 59 0Z"/>
<path id="path3_fill" d="M 3.05175 6.11545C 4.73719 6.11545 6.1035 4.74646 6.1035 3.05772C 6.1035 1.36899 4.73719 0 3.05175 0C 1.36632 0 0 1.36899 0 3.05772C 0 4.74646 1.36632 6.11545 3.05175 6.11545Z"/>
<path id="path4_fill" d="M 1.52582 8.15377C 0.683109 8.15377 -8.44002e-08 7.46921 -8.44002e-08 6.62497L -8.44002e-08 1.5288C -8.44002e-08 0.684446 0.683224 -2.29031e-08 1.52582 -2.29031e-08C 2.36853 -2.29031e-08 3.05164 0.684561 3.05164 1.5288L 3.05164 6.62497C 3.05175 7.46933 2.36853 8.15377 1.52582 8.15377Z"/>
<path id="path5_fill" d="M 1.52582 1.52892C 0.683109 1.52892 -8.44002e-08 0.844358 -8.44002e-08 0.000115583L -8.44002e-08 3.05784C -8.44002e-08 3.9022 0.683224 4.58664 1.52582 4.58664C 2.36853 4.58664 3.05164 3.90208 3.05164 3.05784L 3.05164 1.86748e-07C 3.05175 0.844358 2.36853 1.52892 1.52582 1.52892Z"/>
<path id="path6_fill" d="M 3.05175 6.11545C 4.73719 6.11545 6.1035 4.74646 6.1035 3.05772C 6.1035 1.36899 4.73719 0 3.05175 0C 1.36632 0 0 1.36899 0 3.05772C 0 4.74646 1.36632 6.11545 3.05175 6.11545Z"/>
<path id="path7_fill" d="M 1.52582 8.15377C 0.68311 8.15377 7.03335e-07 7.46921 7.03335e-07 6.62497L 7.03335e-07 1.5288C 7.03335e-07 0.684446 0.683225 -2.29031e-08 1.52582 -2.29031e-08C 2.36853 -2.29031e-08 3.05164 0.684561 3.05164 1.5288L 3.05164 6.62497C 3.05164 7.46933 2.36841 8.15377 1.52582 8.15377Z"/>
<path id="path8_fill" d="M 1.52582 1.52892C 0.68311 1.52892 7.03335e-07 0.844358 7.03335e-07 0.000115583L 7.03335e-07 3.05784C 7.03335e-07 3.9022 0.683225 4.58664 1.52582 4.58664C 2.36841 4.58664 3.05164 3.90208 3.05164 3.05784L 3.05164 1.86748e-07C 3.05164 0.844358 2.36841 1.52892 1.52582 1.52892Z"/>
<path id="path9_fill" d="M 12.2641 12.3535C 12.1545 12.3281 12.1437 12.1881 12.2485 12.1473C 14.6547 11.2136 16.0939 9.14546 16.0939 6.48711C 16.0939 2.72808 12.8302 4.93298e-07 8.33472 4.93298e-07C 4.44348 4.93298e-07 1.4747 2.03902 0.586589 5.32166C 0.472507 5.74055 0.557895 6.17745 0.819247 6.51979C 1.07507 6.85508 1.46341 7.04732 1.88424 7.04732C 2.49314 7.04732 3.02714 6.62982 3.1819 6.03174C 3.7409 3.85809 5.67614 2.50813 8.23262 2.50813C 11.3035 2.50813 13.287 4.18311 13.287 6.77519C 13.287 9.3974 11.1672 11.2288 8.13237 11.2288L 6.27214 11.2288C 5.60009 11.2288 5.05411 11.7759 5.05411 12.4488C 5.05411 13.1216 5.60009 13.6692 6.27214 13.6692L 8.23262 13.6692C 12.0432 13.6692 14.3178 15.4542 14.3178 18.4443C 14.3178 21.1918 11.8512 23.1858 8.45226 23.1858C 5.52046 23.1858 3.25138 21.7547 2.67118 19.5392C 2.50893 18.9243 1.96848 18.4948 1.35681 18.4948C 0.936094 18.4948 0.547639 18.6861 0.288938 19.0196C 0.0257422 19.3604 -0.0633328 19.7974 0.0452179 20.2181C 0.903484 23.5443 4.20979 25.6934 8.46897 25.6934C 13.4131 25.6934 17.1412 22.5478 17.1412 18.3765C 17.1414 15.2966 15.2711 13.0499 12.2641 12.3535Z"/>
<path id="path10_fill" d="M 7.75827 1.00025e-05C 7.07332 0.00255012 6.41441 0.207145 5.8516 0.59255C 5.1398 1.07921 4.1035 1.80084 3.1005 2.49926C 2.09946 3.19582 1.13264 3.86907 0.557042 4.26094C 0.208458 4.49867 9.56535e-07 4.89193 9.56535e-07 5.31313C 9.56535e-07 5.78686 0.259509 6.21822 0.676542 6.43967C 1.09646 6.66355 1.58493 6.63699 1.97973 6.36774C 2.99529 5.67613 5.70848 3.76377 6.43077 3.25413C 6.50752 3.19987 6.6095 3.25783 6.6095 3.35193L 6.6095 23.5927C 6.6095 24.34 7.21667 24.9478 7.96189 24.9478C 8.70711 24.9478 9.31428 24.3399 9.31428 23.5927L 9.31428 1.54567C 9.31451 0.688614 8.61377 -0.00310741 7.75827 1.00025e-05Z"/>
</defs>
</svg>
