<svg width="109" height="109" viewBox="0 0 109 109" version="1.1" xmlns="http://www.w3.org/2000/svg" xmlns:xlink="http://www.w3.org/1999/xlink">
<title>time-is-money</title>
<desc>Created using Figma</desc>
<g id="Canvas" transform="translate(54 -46)">
<g id="time-is-money">
<g id="XMLID 4">
<g id="XMLID 117">
<use xlink:href="#path0_fill" transform="translate(-54 46)" fill="#EFF2FA"/>
</g>
<g id="XMLID 112">
<use xlink:href="#path1_fill" transform="translate(-22.0517 72.0829)" fill="#FF6464"/>
</g>
<g id="XMLID 111">
<use xlink:href="#path2_fill" transform="translate(-1.37931 57.0485)" fill="#806F5E"/>
</g>
<g id="XMLID 110">
<use xlink:href="#path3_fill" transform="translate(-1.37931 137.859)" fill="#806F5E"/>
</g>
<g id="XMLID 109">
<use xlink:href="#path4_fill" transform="translate(38.0862 98.3933)" fill="#806F5E"/>
</g>
<g id="XMLID 108">
<use xlink:href="#path4_fill" transform="translate(-42.7241 98.3933)" fill="#806F5E"/>
</g>
<g id="XMLID 107">
<use xlink:href="#path5_fill" transform="translate(26.5261 69.1564)" fill="#806F5E"/>
</g>
<g id="XMLID 106">
<use xlink:href="#path6_fill" transform="translate(-30.6143 126.299)" fill="#806F5E"/>
</g>
<g id="XMLID 106.1">
<use xlink:href="#path6_fill" transform="matrix(-1 0 0 1 31.4526 126.299)" fill="#806F5E"/>
</g>
<g id="XMLID 105">
<use xlink:href="#path7_fill" transform="translate(-30.6143 69.1564)" fill="#806F5E"/>
</g>
</g>
</g>
</g>
<defs>
<path id="path0_fill" d="M 109 54.5C 109 84.599 84.599 109 54.5 109C 24.401 109 0 84.599 0 54.5C 0 24.401 24.401 0 54.5 0C 84.599 0 109 24.401 109 54.5Z"/>
<path id="path1_fill" d="M 24.431 20.9393L 24.431 1.87931C 24.431 0.840051 23.5891 -5.44844e-07 22.5517 -5.44844e-07C 21.5143 -5.44844e-07 20.6724 0.840051 20.6724 1.87931L 20.6724 20.9393C 18.0433 21.6233 15.9854 23.6812 15.3013 26.3103L 1.87931 26.3103C 0.841931 26.3103 0 27.1504 0 28.1897C 0 29.2289 0.841931 30.069 1.87931 30.069L 15.3013 30.069C 16.1414 33.3014 19.06 35.7069 22.5517 35.7069C 26.6975 35.7069 30.069 32.3354 30.069 28.1897C 30.069 24.696 27.6634 21.7793 24.431 20.9393ZM 22.5517 31.9483C 20.4788 31.9483 18.7931 30.2625 18.7931 28.1897C 18.7931 26.1168 20.4788 24.431 22.5517 24.431C 24.6246 24.431 26.3103 26.1168 26.3103 28.1897C 26.3103 30.2625 24.6246 31.9483 22.5517 31.9483Z"/>
<path id="path2_fill" d="M 1.87931 5.63793C 0.841931 5.63793 0 4.79788 0 3.75862L 0 1.87931C 0 0.840052 0.841931 3.51281e-07 1.87931 3.51281e-07C 2.91669 3.51281e-07 3.75862 0.840052 3.75862 1.87931L 3.75862 3.75862C 3.75862 4.79788 2.91669 5.63793 1.87931 5.63793Z"/>
<path id="path3_fill" d="M 1.87931 5.63793C 0.841931 5.63793 0 4.79788 0 3.75862L 0 1.87931C 0 0.840055 0.841931 3.03966e-06 1.87931 3.03966e-06C 2.91669 3.03966e-06 3.75862 0.840055 3.75862 1.87931L 3.75862 3.75862C 3.75862 4.79788 2.91669 5.63793 1.87931 5.63793Z"/>
<path id="path4_fill" d="M 3.75862 3.75862L 1.87931 3.75862C 0.841931 3.75862 0 2.91857 0 1.87931C 0 0.840051 0.841931 -5.44844e-07 1.87931 -5.44844e-07L 3.75862 -5.44844e-07C 4.796 -5.44844e-07 5.63793 0.840051 5.63793 1.87931C 5.63793 2.91857 4.796 3.75862 3.75862 3.75862Z"/>
<path id="path5_fill" d="M 1.87978 5.08776C 1.39867 5.08776 0.91757 4.90359 0.551105 4.53713C -0.183706 3.80231 -0.183706 2.61459 0.551105 1.87978L 1.87978 0.551107C 2.61459 -0.183703 3.80232 -0.183703 4.53713 0.551107C 5.27194 1.28592 5.27194 2.47364 4.53713 3.20845L 3.20845 4.53713C 2.84199 4.90547 2.36088 5.08776 1.87978 5.08776Z"/>
<path id="path6_fill" d="M 1.87978 5.08777C 1.39868 5.08777 0.917574 4.90359 0.551109 4.53712C -0.183702 3.80231 -0.183702 2.61459 0.551109 1.87978L 1.87978 0.551108C 2.61459 -0.183703 3.80231 -0.183703 4.53712 0.551108C 5.27193 1.28592 5.27193 2.47364 4.53712 3.20846L 3.20845 4.53712C 2.84199 4.90359 2.36088 5.08777 1.87978 5.08777Z"/>
<path id="path7_fill" d="M 3.20845 5.08776C 2.72735 5.08776 2.24625 4.90359 1.87978 4.53713L 0.551109 3.20845C -0.183702 2.47364 -0.183702 1.28592 0.551109 0.551107C 1.28592 -0.183703 2.47364 -0.183703 3.20845 0.551107L 4.53712 1.87978C 5.27193 2.61459 5.27193 3.80231 4.53712 4.53713C 4.17066 4.90547 3.68956 5.08776 3.20845 5.08776Z"/>
</defs>
</svg>
