<svg width="56" height="56" viewBox="0 0 56 56" version="1.1" xmlns="http://www.w3.org/2000/svg" xmlns:xlink="http://www.w3.org/1999/xlink">
<title>AAA</title>
<desc>Created using Figma</desc>
<g id="Canvas" transform="translate(-645 -436)">
<g id="Group 10">
<g id="Ellipse 5">
<use xlink:href="#path0_fill" transform="translate(645 436)" fill="#F2F2F2"/>
</g>
<g id="icons">
<g id="exit">
<use xlink:href="#path1_fill" transform="translate(661.211 452.211)" fill="#BD4E4E"/>
</g>
</g>
</g>
</g>
<defs>
<path id="path0_fill" d="M 56 28C 56 43.464 43.464 56 28 56C 12.536 56 0 43.464 0 28C 0 12.536 12.536 0 28 0C 43.464 0 56 12.536 56 28Z"/>
<path id="path1_fill" d="M 16.5053 11.7895L 22.5684 5.72632C 23.9158 4.37895 23.9158 2.35789 22.5684 1.01053C 21.2211 -0.336842 19.2 -0.336842 17.8526 1.01053L 11.7895 7.07368L 5.72632 1.01053C 4.37895 -0.336842 2.35789 -0.336842 1.01053 1.01053C -0.336842 2.35789 -0.336842 4.37895 1.01053 5.72632L 7.07368 11.7895L 1.01053 17.8526C -0.336842 19.2 -0.336842 21.2211 1.01053 22.5684C 1.68421 23.2421 2.52632 23.5789 3.36842 23.5789C 4.21053 23.5789 5.05263 23.2421 5.72632 22.5684L 11.7895 16.5053L 17.8526 22.5684C 18.5263 23.2421 19.3684 23.5789 20.2105 23.5789C 21.0526 23.5789 21.8947 23.2421 22.5684 22.5684C 23.9158 21.2211 23.9158 19.2 22.5684 17.8526L 16.5053 11.7895Z"/>
</defs>
</svg>
