<svg width="23" height="23" viewBox="0 0 23 23" version="1.1" xmlns="http://www.w3.org/2000/svg" xmlns:xlink="http://www.w3.org/1999/xlink">
<title>if_gears_cogs_1891411</title>
<desc>Created using Figma</desc>
<g id="Canvas" transform="translate(-2649 186)">
<g id="if_gears_cogs_1891411">
<g id="Layer 2">
<g id="Layer 1">
<g id="Vector">
<use xlink:href="#path0_fill" transform="matrix(1 5.55112e-17 -5.55112e-17 1 2649 -186)" fill="#FFFFFF"/>
</g>
</g>
</g>
</g>
</g>
<defs>
<path id="path0_fill" d="M 19.8264 11.4911C 19.8242 11.2688 19.8729 11.0489 19.9687 10.8482C 20.0645 10.6475 20.2048 10.4713 20.3791 10.3331C 21.305 9.6615 22.1755 8.91679 22.9822 8.10612L 21.9837 5.70101L 18.5961 6.05732C 18.3777 6.08031 18.1568 6.0538 17.95 5.97978C 17.7432 5.90575 17.5557 5.78611 17.4016 5.62974L 17.4016 5.62974C 17.2457 5.47211 17.1278 5.28112 17.0568 5.07123C 16.9857 4.86135 16.9634 4.63806 16.9915 4.41828C 17.1597 3.28606 17.2372 2.14222 17.2233 0.997676L 14.8163 0C 14.026 0.811936 13.3044 1.6879 12.6589 2.6189C 12.5242 2.79955 12.3495 2.94663 12.1484 3.04862C 11.9474 3.15061 11.7255 3.20475 11.5 3.20682L 11.5 3.20682C 11.279 3.21108 11.0598 3.1652 10.8591 3.07263C 10.6584 2.98005 10.4812 2.84319 10.3411 2.67235L 8.1124 0L 5.70543 1.03331L 6.06202 4.41828C 6.08502 4.63658 6.0585 4.85726 5.98441 5.06391C 5.91033 5.27056 5.7906 5.45787 5.63411 5.61193L 5.63411 5.61193C 5.47799 5.77081 5.2876 5.89193 5.07747 5.96603C 4.86734 6.04014 4.64304 6.06527 4.42171 6.0395C 3.28876 5.87001 2.14392 5.79255 0.99845 5.8079L 3.95893e-15 8.21301C 0.812389 8.99749 1.6891 9.71262 2.62093 10.3509C 2.80173 10.4855 2.94891 10.6601 3.05098 10.861C 3.15305 11.0619 3.20723 11.2836 3.2093 11.5089L 3.2093 11.5089C 3.21144 11.7312 3.16276 11.9511 3.06697 12.1518C 2.97119 12.3525 2.83083 12.5287 2.65659 12.6669C 1.71412 13.3387 0.825864 14.0833 0 14.8939L 1.03411 17.3168C 2.16486 17.2983 3.29206 17.185 4.40388 16.9783C 4.62589 16.9466 4.85223 16.9664 5.06537 17.0361C 5.27851 17.1059 5.47274 17.2236 5.63303 17.3804C 5.79333 17.5371 5.91539 17.7286 5.98978 17.94C 6.06417 18.1514 6.08888 18.3771 6.06202 18.5995C 5.88366 19.725 5.79424 20.8628 5.79457 22.0023L 8.20155 23C 8.98393 22.1858 9.69942 21.31 10.3411 20.3811C 10.4758 20.2004 10.6505 20.0534 10.8516 19.9514C 11.0526 19.8494 11.2745 19.7952 11.5 19.7932L 11.5 19.7932C 11.7225 19.7911 11.9425 19.8397 12.1434 19.9354C 12.3442 20.0311 12.5205 20.1714 12.6589 20.3455C 13.3305 21.2711 14.0758 22.1409 14.8876 22.9466L 17.3124 21.9489C 17.2924 20.8191 17.1791 19.6929 16.9736 18.5817C 16.9399 18.3563 16.9594 18.1261 17.0306 17.9096C 17.1018 17.693 17.2227 17.4961 17.3837 17.3346L 17.3837 17.3346C 17.5415 17.1789 17.7326 17.0611 17.9427 16.9901C 18.1527 16.9191 18.3762 16.8968 18.5961 16.9249C 19.7222 17.1054 20.8611 17.1948 22.0016 17.1921L 23 14.787C 22.1877 14.0024 21.311 13.2872 20.3791 12.6491C 20.1959 12.5127 20.0472 12.3353 19.945 12.1311C 19.8429 11.9269 19.79 11.7016 19.7907 11.4733L 19.8264 11.4911ZM 13.7109 16.8358C 12.6618 17.272 11.5067 17.3873 10.392 17.1671C 9.27726 16.9469 8.25299 16.4011 7.44889 15.5989C 6.64479 14.7967 6.09702 13.774 5.87494 12.6605C 5.65286 11.547 5.76647 10.3927 6.20138 9.34372C 6.63628 8.29476 7.37293 7.39834 8.31802 6.76799C 9.26312 6.13764 10.3742 5.80171 11.5105 5.80272C 12.6468 5.80374 13.7572 6.14166 14.7012 6.77371C 15.6451 7.40575 16.3802 8.30348 16.8132 9.35321C 17.3811 10.7526 17.3739 12.3194 16.7931 13.7135C 16.2123 15.1077 15.1048 16.2167 13.7109 16.8002L 13.7109 16.8358Z"/>
</defs>
</svg>
