<svg width="12" height="16" viewBox="0 0 12 16" version="1.1" xmlns="http://www.w3.org/2000/svg" xmlns:xlink="http://www.w3.org/1999/xlink">
<title>Vector.svg</title>
<desc>Created using Figma</desc>
<g id="Canvas" transform="translate(-509 192)">
<g id="Vector">
<use xlink:href="#path0_fill" transform="translate(509 -192)" fill="#FFFFFF"/>
</g>
</g>
<defs>
<path id="path0_fill" d="M 6 0C 2.687 0 0 2.687 0 6C 0 9.854 4.321 14.663 5 15.398C 5.281 15.703 5.516 16 6 16C 6.484 16 6.719 15.703 7 15.398C 7.679 14.663 12 9.854 12 6C 12 2.687 9.313 0 6 0ZM 6 10C 3.791 10 2 8.209 2 6C 2 3.791 3.791 2 6 2C 8.209 2 10 3.791 10 6C 10 8.209 8.209 10 6 10ZM 6 4C 4.896 4 4 4.896 4 6C 4 7.104 4.896 8 6 8C 7.104 8 8 7.104 8 6C 8 4.896 7.104 4 6 4Z"/>
</defs>
</svg>
