<svg width="420" height="424" viewBox="0 0 420 424" version="1.1" xmlns="http://www.w3.org/2000/svg" xmlns:xlink="http://www.w3.org/1999/xlink">
<title>corporative</title>
<desc>Created using Figma</desc>
<g id="Canvas" transform="translate(-46 1185)">
<g id="corporative">
<g id="Canvas">
<g id="company">
<g id="Vector">
<g id="Vector">
<use xlink:href="#path0_fill" transform="translate(180.079 -1105.44)" fill="#F2F2F2"/>
</g>
</g>
<g id="Vector">
<g id="Vector">
<use xlink:href="#path1_fill" transform="translate(235.274 -924.208)" fill="#201F2D"/>
</g>
</g>
<g id="Vector">
<g id="Vector">
<use xlink:href="#path2_fill" transform="translate(159.341 -868.445)" fill="#E0E0E0"/>
</g>
</g>
<g id="Group">
<g id="Vector">
<g id="Vector">
<use xlink:href="#path3_fill" transform="translate(373.42 -1175.14)" fill="#DDA137"/>
</g>
</g>
<g id="Vector">
<g id="Vector">
<use xlink:href="#path3_fill" transform="translate(373.42 -854.506)" fill="#DDA137"/>
</g>
</g>
<g id="Vector">
<g id="Vector">
<use xlink:href="#path3_fill" transform="translate(55.7786 -1175.14)" fill="#DDA137"/>
</g>
</g>
<g id="Vector">
<g id="Vector">
<use xlink:href="#path3_fill" transform="translate(55.7786 -854.506)" fill="#DDA137"/>
</g>
</g>
</g>
<g id="Group">
<g id="Vector">
<g id="Vector">
<use xlink:href="#path4_fill" transform="translate(207.708 -1077.56)" fill="#201F2D"/>
</g>
</g>
<g id="Vector">
<g id="Vector">
<use xlink:href="#path4_fill" transform="translate(235.274 -1077.56)" fill="#201F2D"/>
</g>
</g>
<g id="Vector">
<g id="Vector">
<use xlink:href="#path5_fill" transform="translate(262.903 -1077.56)" fill="#201F2D"/>
</g>
</g>
<g id="Vector">
<g id="Vector">
<use xlink:href="#path5_fill" transform="translate(290.532 -1077.56)" fill="#201F2D"/>
</g>
</g>
<g id="Vector">
<g id="Vector">
<use xlink:href="#path4_fill" transform="translate(207.708 -1049.68)" fill="#201F2D"/>
</g>
</g>
<g id="Vector">
<g id="Vector">
<use xlink:href="#path4_fill" transform="translate(235.274 -1049.68)" fill="#201F2D"/>
</g>
</g>
<g id="Vector">
<g id="Vector">
<use xlink:href="#path5_fill" transform="translate(262.903 -1049.68)" fill="#201F2D"/>
</g>
</g>
<g id="Vector">
<g id="Vector">
<use xlink:href="#path5_fill" transform="translate(290.532 -1049.68)" fill="#201F2D"/>
</g>
</g>
<g id="Vector">
<g id="Vector">
<use xlink:href="#path4_fill" transform="translate(207.708 -1021.79)" fill="#201F2D"/>
</g>
</g>
<g id="Vector">
<g id="Vector">
<use xlink:href="#path4_fill" transform="translate(235.274 -1021.79)" fill="#201F2D"/>
</g>
</g>
<g id="Vector">
<g id="Vector">
<use xlink:href="#path5_fill" transform="translate(262.903 -1021.79)" fill="#201F2D"/>
</g>
</g>
<g id="Vector">
<g id="Vector">
<use xlink:href="#path5_fill" transform="translate(290.532 -1021.79)" fill="#201F2D"/>
</g>
</g>
<g id="Vector">
<g id="Vector">
<use xlink:href="#path4_fill" transform="translate(207.708 -993.909)" fill="#201F2D"/>
</g>
</g>
<g id="Vector">
<g id="Vector">
<use xlink:href="#path4_fill" transform="translate(235.274 -993.909)" fill="#201F2D"/>
</g>
</g>
<g id="Vector">
<g id="Vector">
<use xlink:href="#path5_fill" transform="translate(262.903 -993.909)" fill="#201F2D"/>
</g>
</g>
<g id="Vector">
<g id="Vector">
<use xlink:href="#path5_fill" transform="translate(290.532 -993.909)" fill="#201F2D"/>
</g>
</g>
<g id="Vector">
<g id="Vector">
<use xlink:href="#path6_fill" transform="translate(207.708 -966.031)" fill="#201F2D"/>
</g>
</g>
<g id="Vector">
<g id="Vector">
<use xlink:href="#path6_fill" transform="translate(235.274 -966.031)" fill="#201F2D"/>
</g>
</g>
<g id="Vector">
<g id="Vector">
<use xlink:href="#path7_fill" transform="translate(262.903 -966.031)" fill="#201F2D"/>
</g>
</g>
<g id="Vector">
<g id="Vector">
<use xlink:href="#path7_fill" transform="translate(290.532 -966.031)" fill="#201F2D"/>
</g>
</g>
<g id="Vector">
<g id="Vector">
<use xlink:href="#path8_fill" transform="translate(214.6 -931.177)" fill="#201F2D"/>
</g>
</g>
<g id="Vector">
<g id="Vector">
<use xlink:href="#path9_fill" transform="translate(331.944 -1101.35)" fill="#201F2D"/>
</g>
</g>
<g id="Vector">
<g id="Vector">
<use xlink:href="#path10_fill" transform="translate(331.944 -1005.81)" fill="#201F2D"/>
</g>
</g>
<g id="Vector">
<g id="Vector">
<use xlink:href="#path11_fill" transform="translate(331.944 -917.238)" fill="#201F2D"/>
</g>
</g>
<g id="Vector">
<g id="Vector">
<use xlink:href="#path12_fill" transform="translate(223.526 -840.561)" fill="#201F2D"/>
</g>
</g>
<g id="Vector">
<g id="Vector">
<use xlink:href="#path13_fill" transform="translate(223.526 -1185)" fill="#201F2D"/>
</g>
</g>
<g id="Vector">
<g id="Vector">
<use xlink:href="#path14_fill" transform="translate(64.7048 -917.238)" fill="#201F2D"/>
</g>
</g>
<g id="Vector">
<g id="Vector">
<use xlink:href="#path15_fill" transform="translate(46 -1005.81)" fill="#201F2D"/>
</g>
</g>
<g id="Vector">
<g id="Vector">
<use xlink:href="#path16_fill" transform="translate(64.7048 -1101.35)" fill="#201F2D"/>
</g>
</g>
</g>
</g>
</g>
</g>
</g>
<defs>
<path id="path0_fill" d="M 151.912 0L 0 0L 0 236.995L 151.912 236.995L 151.912 0Z"/>
<path id="path1_fill" d="M 41.4306 0L 0 0L 0 55.7636L 41.4306 55.7636L 41.4306 0Z"/>
<path id="path2_fill" d="M 193.343 0L 0 0L 0 27.8818L 193.343 27.8818L 193.343 0Z"/>
<path id="path3_fill" d="M 41.4306 83.6456C 64.312 83.6456 82.8614 64.9207 82.8614 41.8227C 82.8614 18.7246 64.312 0 41.4306 0C 18.5491 0 0 18.7246 0 41.8227C 0 64.9207 18.5491 83.6456 41.4306 83.6456Z"/>
<path id="path4_fill" d="M 13.8102 0L 0 0L 0 13.9409L 13.8102 13.9409L 13.8102 0Z"/>
<path id="path5_fill" d="M 13.8102 0L 0 0L 0 13.9409L 13.8102 13.9409L 13.8102 0Z"/>
<path id="path6_fill" d="M 13.8102 0L 0 0L 0 13.9409L 13.8102 13.9409L 13.8102 0Z"/>
<path id="path7_fill" d="M 13.8102 0L 0 0L 0 13.9409L 13.8102 13.9409L 13.8102 0Z"/>
<path id="path8_fill" d="M 82.8614 0L 0 0L 0 13.9409L 82.8614 13.9409L 82.8614 0Z"/>
<path id="path9_fill" d="M -3.34719e-13 58.6493L -3.34719e-13 72.5905L 89.7662 72.5905L 89.7662 26.6829L 105.6 42.6661L 115.363 32.8099L 82.8614 0L 50.3589 32.8099L 60.1226 42.6661L 75.9559 26.6829L 75.9559 58.6493L -3.34719e-13 58.6493Z"/>
<path id="path10_fill" d="M 91.7895 9.85624L 107.623 25.8395L -3.34719e-13 25.8395L -3.34719e-13 39.7803L 107.623 39.7803L 91.7895 55.7636L 101.553 65.6198L 134.056 32.8099L 101.553 -1.68943e-13L 91.7895 9.85624Z"/>
<path id="path11_fill" d="M -3.34719e-13 -3.37887e-13L -3.34719e-13 13.9409L 75.9559 13.9409L 75.9559 45.9074L 60.1226 29.9241L 50.3589 39.7803L 82.8614 72.5905L 115.363 39.7803L 105.6 29.9241L 89.7662 45.9074L 89.7662 -3.37887e-13L -3.34719e-13 -3.37887e-13Z"/>
<path id="path12_fill" d="M 25.5972 -3.37887e-13L 25.5972 52.8778L 9.76383 36.8946L -1.67359e-13 46.7508L 32.5023 79.5607L 65.0046 46.7508L 55.2408 36.8946L 39.4074 52.8778L 39.4074 -3.37887e-13L 25.5972 -3.37887e-13Z"/>
<path id="path13_fill" d="M 65.0046 32.8099L 32.5023 0L -1.67359e-13 32.8099L 9.76383 42.6661L 25.5972 26.6829L 25.5972 79.5607L 39.4074 79.5607L 39.4074 26.6829L 55.2408 42.6661L 65.0046 32.8099Z"/>
<path id="path14_fill" d="M 115.363 -3.37887e-13L 25.5972 -3.37887e-13L 25.5972 45.9074L 9.76383 29.9241L 7.31149e-17 39.7803L 32.5023 72.5905L 65.0046 39.7803L 55.2408 29.9241L 39.4074 45.9074L 39.4074 13.9409L 115.363 13.9409L 115.363 -3.37887e-13Z"/>
<path id="path15_fill" d="M 42.2661 55.7636L 26.4327 39.7803L 134.056 39.7803L 134.056 25.8395L 26.4327 25.8395L 42.2661 9.85624L 32.5023 -1.68943e-13L 0 32.8099L 32.5023 65.6198L 42.2661 55.7636Z"/>
<path id="path16_fill" d="M 115.363 72.5905L 115.363 58.6493L 39.4074 58.6493L 39.4074 26.6829L 55.2408 42.6661L 65.0046 32.8099L 32.5023 0L 7.31149e-17 32.8099L 9.76383 42.6661L 25.5972 26.6829L 25.5972 72.5905L 115.363 72.5905Z"/>
</defs>
</svg>
