<svg width="54" height="66" viewBox="0 0 54 66" version="1.1" xmlns="http://www.w3.org/2000/svg" xmlns:xlink="http://www.w3.org/1999/xlink">
<title>vector.svg</title>
<desc>Created using Figma</desc>
<g id="Canvas" transform="translate(-2345 319)">
<g id="vector">
<g id="Vector">
<use xlink:href="#path0_fill" transform="translate(2363.37 -319)" fill="#4ACFD9"/>
</g>
<g id="Vector">
<use xlink:href="#path1_fill" transform="translate(2361.92 -297.753)" fill="#FFD1A9"/>
</g>
<g id="Vector">
<use xlink:href="#path2_fill" transform="translate(2363.37 -319)" fill="#0295AA"/>
</g>
<g id="Vector">
<use xlink:href="#path3_fill" transform="translate(2361.92 -297.753)" fill="#FF8C29"/>
</g>
<g id="Vector">
<use xlink:href="#path4_fill" transform="translate(2355.72 -257.947)" fill="#9BAAAB"/>
</g>
<g id="Group">
<g id="Vector">
<use xlink:href="#path5_fill" transform="translate(2350.08 -260.773)" fill="#F0353D"/>
</g>
<g id="Vector">
<use xlink:href="#path6_fill" transform="translate(2386.17 -260.773)" fill="#F0353D"/>
</g>
</g>
<g id="Vector">
<use xlink:href="#path7_fill" transform="translate(2345 -286.212)" fill="#365558"/>
</g>
</g>
</g>
<defs>
<path id="path0_fill" d="M 17.3982 0.344051C 17.1978 0.124781 16.915 0 16.6185 0L 1.05748 0C 0.763371 0 0.482509 0.122848 0.282408 0.338895C 0.0823056 0.554941 -0.0190319 0.844851 0.00295872 1.13876L 1.51671 21.49C 1.55786 22.0432 2.01774 22.4711 2.57136 22.4711L 14.8376 22.4711C 15.3859 22.4711 15.8432 22.0512 15.8911 21.5036L 17.6721 1.15255C 17.6978 0.856582 17.5986 0.563062 17.3982 0.344051Z"/>
<path id="path1_fill" d="M 17.3293 -6.76632e-07L 2.83245 -6.76632e-07L 0.0126309 18.0899C -0.0211909 18.3075 0.0132745 18.5304 0.111654 18.7276L 9.02352 36.5936L 9.02352 15.8595C 7.95189 15.4352 7.19058 14.3889 7.19058 13.1657C 7.19058 11.5682 8.48713 10.2685 10.0809 10.2685C 11.6746 10.2685 12.9712 11.5682 12.9712 13.1657C 12.9712 14.3889 12.21 15.4351 11.1382 15.8595L 11.1382 36.5936L 20.0501 18.7276C 20.1483 18.5307 20.1829 18.3077 20.1491 18.0899L 17.3293 -6.76632e-07Z"/>
<path id="path2_fill" d="M 1.05748 0C 0.763371 0 0.482509 0.122848 0.282408 0.338895C 0.0823056 0.554941 -0.0190319 0.844851 0.00295872 1.13876L 1.51671 21.49C 1.55786 22.0432 2.01774 22.4711 2.57136 22.4711L 8.63396 22.4711L 8.63396 0L 1.05748 0Z"/>
<path id="path3_fill" d="M 2.83245 -6.76632e-07L 0.0126309 18.0899C -0.0211909 18.3075 0.0132745 18.5304 0.111654 18.7276L 9.02352 36.5936L 9.02352 15.8595C 7.95189 15.4352 7.19058 14.3889 7.19058 13.1657C 7.19058 11.5682 8.48713 10.2685 10.0809 10.2685L 10.0809 -6.76632e-07L 2.83245 -6.76632e-07Z"/>
<path id="path4_fill" d="M 31.5118 2.11999L 1.05748 2.11999C 0.473378 2.11999 -6.27931e-07 1.64536 -6.27931e-07 1.06C -6.27931e-07 0.474634 0.473249 1.82533e-06 1.05748 1.82533e-06L 31.5118 1.82533e-06C 32.0959 1.82533e-06 32.5693 0.474634 32.5693 1.06C 32.5693 1.64536 32.0959 2.11999 31.5118 2.11999Z"/>
<path id="path5_fill" d="M 6.69711 1.57356e-06L 1.05748 1.57356e-06C 0.473377 1.57356e-06 -1.49134e-07 0.474633 -1.49134e-07 1.06L -1.49134e-07 6.71305C -1.49134e-07 7.29842 0.473249 7.77305 1.05748 7.77305L 6.69711 7.77305C 7.28122 7.77305 7.75459 7.29842 7.75459 6.71305L 7.75459 1.06C 7.75459 0.474633 7.28122 1.57356e-06 6.69711 1.57356e-06Z"/>
<path id="path6_fill" d="M 6.69711 1.57356e-06L 1.05748 1.57356e-06C 0.473379 1.57356e-06 -1.22446e-06 0.474633 -1.22446e-06 1.06L -1.22446e-06 6.71305C -1.22446e-06 7.29842 0.47325 7.77305 1.05748 7.77305L 6.69711 7.77305C 7.28121 7.77305 7.75459 7.29842 7.75459 6.71305L 7.75459 1.06C 7.75459 0.474633 7.28121 1.57356e-06 6.69711 1.57356e-06Z"/>
<path id="path7_fill" d="M 27 28.1243C 12.1121 28.1243 1.13812e-07 15.9832 1.13812e-07 1.06C 1.13812e-07 0.474633 0.473249 -5.50747e-07 1.05748 -5.50747e-07C 1.64171 -5.50747e-07 2.11496 0.474633 2.11496 1.06C 2.11496 14.8143 13.2785 26.0043 27 26.0043C 40.7215 26.0043 51.885 14.8142 51.885 1.06C 51.885 0.474633 52.3583 -5.50747e-07 52.9425 -5.50747e-07C 53.5266 -5.50747e-07 54 0.474633 54 1.06C 54 15.9832 41.8879 28.1243 27 28.1243Z"/>
</defs>
</svg>
