<svg width="58" height="57" viewBox="0 0 58 57" version="1.1" xmlns="http://www.w3.org/2000/svg" xmlns:xlink="http://www.w3.org/1999/xlink">
<title>basket.svg</title>
<desc>Created using Figma</desc>
<g id="Canvas" transform="translate(-2210 621)">
<g id="basket">
<g id="Group">
<g id="Vector">
<use xlink:href="#path0_fill" transform="translate(2210 -602)" fill="#8697CB"/>
</g>
<g id="Vector">
<use xlink:href="#path1_fill" transform="translate(2212 -596)" fill="#556080"/>
</g>
<g id="Vector">
<use xlink:href="#path2_fill" transform="translate(2215 -619)" fill="#556080"/>
</g>
<g id="Vector">
<use xlink:href="#path3_fill" transform="translate(2249 -619)" fill="#556080"/>
</g>
<g id="Vector">
<use xlink:href="#path4_fill" transform="translate(2232 -591)" fill="#8697CB"/>
</g>
<g id="Vector">
<use xlink:href="#path4_fill" transform="translate(2235 -594)" fill="#8697CB"/>
</g>
<g id="Vector">
<use xlink:href="#path4_fill" transform="translate(2235 -588)" fill="#8697CB"/>
</g>
<g id="Vector">
<use xlink:href="#path4_fill" transform="translate(2238 -591)" fill="#8697CB"/>
</g>
<g id="Vector">
<use xlink:href="#path4_fill" transform="translate(2226 -591)" fill="#8697CB"/>
</g>
<g id="Vector">
<use xlink:href="#path4_fill" transform="translate(2229 -594)" fill="#8697CB"/>
</g>
<g id="Vector">
<use xlink:href="#path4_fill" transform="translate(2229 -588)" fill="#8697CB"/>
</g>
<g id="Vector">
<use xlink:href="#path4_fill" transform="translate(2214 -591)" fill="#8697CB"/>
</g>
<g id="Vector">
<use xlink:href="#path4_fill" transform="translate(2220 -591)" fill="#8697CB"/>
</g>
<g id="Vector">
<use xlink:href="#path4_fill" transform="translate(2217 -594)" fill="#8697CB"/>
</g>
<g id="Vector">
<use xlink:href="#path4_fill" transform="translate(2223 -594)" fill="#8697CB"/>
</g>
<g id="Vector">
<use xlink:href="#path4_fill" transform="translate(2217 -588)" fill="#8697CB"/>
</g>
<g id="Vector">
<use xlink:href="#path4_fill" transform="translate(2223 -588)" fill="#8697CB"/>
</g>
<g id="Vector">
<use xlink:href="#path4_fill" transform="translate(2262 -591)" fill="#8697CB"/>
</g>
<g id="Vector">
<use xlink:href="#path4_fill" transform="translate(2256 -591)" fill="#8697CB"/>
</g>
<g id="Vector">
<use xlink:href="#path4_fill" transform="translate(2259 -594)" fill="#8697CB"/>
</g>
<g id="Vector">
<use xlink:href="#path4_fill" transform="translate(2259 -588)" fill="#8697CB"/>
</g>
<g id="Vector">
<use xlink:href="#path4_fill" transform="translate(2241 -594)" fill="#8697CB"/>
</g>
<g id="Vector">
<use xlink:href="#path4_fill" transform="translate(2241 -588)" fill="#8697CB"/>
</g>
<g id="Vector">
<use xlink:href="#path4_fill" transform="translate(2244 -591)" fill="#8697CB"/>
</g>
<g id="Vector">
<use xlink:href="#path4_fill" transform="translate(2250 -591)" fill="#8697CB"/>
</g>
<g id="Vector">
<use xlink:href="#path4_fill" transform="translate(2232 -585)" fill="#8697CB"/>
</g>
<g id="Vector">
<use xlink:href="#path4_fill" transform="translate(2238 -585)" fill="#8697CB"/>
</g>
<g id="Vector">
<use xlink:href="#path4_fill" transform="translate(2226 -585)" fill="#8697CB"/>
</g>
<g id="Vector">
<use xlink:href="#path4_fill" transform="translate(2214 -585)" fill="#8697CB"/>
</g>
<g id="Vector">
<use xlink:href="#path4_fill" transform="translate(2220 -585)" fill="#8697CB"/>
</g>
<g id="Vector">
<use xlink:href="#path4_fill" transform="translate(2262 -585)" fill="#8697CB"/>
</g>
<g id="Vector">
<use xlink:href="#path4_fill" transform="translate(2256 -585)" fill="#8697CB"/>
</g>
<g id="Vector">
<use xlink:href="#path4_fill" transform="translate(2244 -585)" fill="#8697CB"/>
</g>
<g id="Vector">
<use xlink:href="#path4_fill" transform="translate(2250 -585)" fill="#8697CB"/>
</g>
<g id="Vector">
<use xlink:href="#path4_fill" transform="translate(2247 -594)" fill="#8697CB"/>
</g>
<g id="Vector">
<use xlink:href="#path4_fill" transform="translate(2253 -594)" fill="#8697CB"/>
</g>
<g id="Vector">
<use xlink:href="#path4_fill" transform="translate(2247 -588)" fill="#8697CB"/>
</g>
<g id="Vector">
<use xlink:href="#path4_fill" transform="translate(2253 -588)" fill="#8697CB"/>
</g>
<g id="Vector">
<use xlink:href="#path4_fill" transform="translate(2232 -579)" fill="#8697CB"/>
</g>
<g id="Vector">
<use xlink:href="#path4_fill" transform="translate(2235 -582)" fill="#8697CB"/>
</g>
<g id="Vector">
<use xlink:href="#path4_fill" transform="translate(2235 -576)" fill="#8697CB"/>
</g>
<g id="Vector">
<use xlink:href="#path4_fill" transform="translate(2238 -579)" fill="#8697CB"/>
</g>
<g id="Vector">
<use xlink:href="#path4_fill" transform="translate(2226 -579)" fill="#8697CB"/>
</g>
<g id="Vector">
<use xlink:href="#path4_fill" transform="translate(2229 -582)" fill="#8697CB"/>
</g>
<g id="Vector">
<use xlink:href="#path4_fill" transform="translate(2229 -576)" fill="#8697CB"/>
</g>
<g id="Vector">
<use xlink:href="#path4_fill" transform="translate(2214 -579)" fill="#8697CB"/>
</g>
<g id="Vector">
<use xlink:href="#path4_fill" transform="translate(2220 -579)" fill="#8697CB"/>
</g>
<g id="Vector">
<use xlink:href="#path4_fill" transform="translate(2217 -582)" fill="#8697CB"/>
</g>
<g id="Vector">
<use xlink:href="#path4_fill" transform="translate(2223 -582)" fill="#8697CB"/>
</g>
<g id="Vector">
<use xlink:href="#path4_fill" transform="translate(2217 -576)" fill="#8697CB"/>
</g>
<g id="Vector">
<use xlink:href="#path4_fill" transform="translate(2223 -576)" fill="#8697CB"/>
</g>
<g id="Vector">
<use xlink:href="#path4_fill" transform="translate(2262 -579)" fill="#8697CB"/>
</g>
<g id="Vector">
<use xlink:href="#path4_fill" transform="translate(2256 -579)" fill="#8697CB"/>
</g>
<g id="Vector">
<use xlink:href="#path4_fill" transform="translate(2259 -582)" fill="#8697CB"/>
</g>
<g id="Vector">
<use xlink:href="#path4_fill" transform="translate(2259 -576)" fill="#8697CB"/>
</g>
<g id="Vector">
<use xlink:href="#path4_fill" transform="translate(2241 -582)" fill="#8697CB"/>
</g>
<g id="Vector">
<use xlink:href="#path4_fill" transform="translate(2241 -576)" fill="#8697CB"/>
</g>
<g id="Vector">
<use xlink:href="#path4_fill" transform="translate(2244 -579)" fill="#8697CB"/>
</g>
<g id="Vector">
<use xlink:href="#path4_fill" transform="translate(2250 -579)" fill="#8697CB"/>
</g>
<g id="Vector">
<use xlink:href="#path4_fill" transform="translate(2232 -573)" fill="#8697CB"/>
</g>
<g id="Vector">
<use xlink:href="#path4_fill" transform="translate(2238 -573)" fill="#8697CB"/>
</g>
<g id="Vector">
<use xlink:href="#path4_fill" transform="translate(2226 -573)" fill="#8697CB"/>
</g>
<g id="Vector">
<use xlink:href="#path4_fill" transform="translate(2214 -573)" fill="#8697CB"/>
</g>
<g id="Vector">
<use xlink:href="#path4_fill" transform="translate(2220 -573)" fill="#8697CB"/>
</g>
<g id="Vector">
<use xlink:href="#path4_fill" transform="translate(2262 -573)" fill="#8697CB"/>
</g>
<g id="Vector">
<use xlink:href="#path4_fill" transform="translate(2256 -573)" fill="#8697CB"/>
</g>
<g id="Vector">
<use xlink:href="#path4_fill" transform="translate(2244 -573)" fill="#8697CB"/>
</g>
<g id="Vector">
<use xlink:href="#path4_fill" transform="translate(2250 -573)" fill="#8697CB"/>
</g>
<g id="Vector">
<use xlink:href="#path4_fill" transform="translate(2247 -582)" fill="#8697CB"/>
</g>
<g id="Vector">
<use xlink:href="#path4_fill" transform="translate(2253 -582)" fill="#8697CB"/>
</g>
<g id="Vector">
<use xlink:href="#path4_fill" transform="translate(2247 -576)" fill="#8697CB"/>
</g>
<g id="Vector">
<use xlink:href="#path4_fill" transform="translate(2253 -576)" fill="#8697CB"/>
</g>
<g id="Vector">
<use xlink:href="#path4_fill" transform="translate(2232 -567)" fill="#8697CB"/>
</g>
<g id="Vector">
<use xlink:href="#path4_fill" transform="translate(2235 -570)" fill="#8697CB"/>
</g>
<g id="Vector">
<use xlink:href="#path4_fill" transform="translate(2238 -567)" fill="#8697CB"/>
</g>
<g id="Vector">
<use xlink:href="#path4_fill" transform="translate(2226 -567)" fill="#8697CB"/>
</g>
<g id="Vector">
<use xlink:href="#path4_fill" transform="translate(2229 -570)" fill="#8697CB"/>
</g>
<g id="Vector">
<use xlink:href="#path4_fill" transform="translate(2214 -567)" fill="#8697CB"/>
</g>
<g id="Vector">
<use xlink:href="#path4_fill" transform="translate(2220 -567)" fill="#8697CB"/>
</g>
<g id="Vector">
<use xlink:href="#path4_fill" transform="translate(2217 -570)" fill="#8697CB"/>
</g>
<g id="Vector">
<use xlink:href="#path4_fill" transform="translate(2223 -570)" fill="#8697CB"/>
</g>
<g id="Vector">
<use xlink:href="#path4_fill" transform="translate(2262 -567)" fill="#8697CB"/>
</g>
<g id="Vector">
<use xlink:href="#path4_fill" transform="translate(2256 -567)" fill="#8697CB"/>
</g>
<g id="Vector">
<use xlink:href="#path4_fill" transform="translate(2259 -570)" fill="#8697CB"/>
</g>
<g id="Vector">
<use xlink:href="#path4_fill" transform="translate(2241 -570)" fill="#8697CB"/>
</g>
<g id="Vector">
<use xlink:href="#path4_fill" transform="translate(2244 -567)" fill="#8697CB"/>
</g>
<g id="Vector">
<use xlink:href="#path4_fill" transform="translate(2250 -567)" fill="#8697CB"/>
</g>
<g id="Vector">
<use xlink:href="#path4_fill" transform="translate(2247 -570)" fill="#8697CB"/>
</g>
<g id="Vector">
<use xlink:href="#path4_fill" transform="translate(2253 -570)" fill="#8697CB"/>
</g>
<g id="Vector">
<use xlink:href="#path5_fill" transform="translate(2228 -621)" fill="#F0C419"/>
</g>
</g>
</g>
</g>
<defs>
<path id="path0_fill" d="M 58 0L 0 0L 0 6L 58 6L 58 0Z"/>
<path id="path1_fill" d="M 50.433 32L 3.567 32C 1.597 32 0 30.403 0 28.433L 0 0L 54 0L 54 28.433C 54 30.403 52.403 32 50.433 32Z"/>
<path id="path2_fill" d="M 1.00042 21C 0.871424 21 0.739424 20.975 0.612424 20.922C 0.103424 20.707 -0.135576 20.121 0.078424 19.612L 7.42742 2.159C 7.97942 0.848 9.25542 0 10.6794 0L 13.0004 0C 13.5524 0 14.0004 0.447 14.0004 1C 14.0004 1.553 13.5524 2 13.0004 2L 10.6794 2C 10.0624 2 9.51042 2.367 9.27142 2.935L 1.92242 20.388C 1.76142 20.771 1.39042 21 1.00042 21Z"/>
<path id="path3_fill" d="M 13 21C 12.61 21 12.239 20.771 12.078 20.388L 4.729 2.935C 4.491 2.367 3.938 2 3.321 2L 1 2C 0.448 2 0 1.553 0 1C 0 0.447 0.448 0 1 0L 3.321 0C 4.744 0 6.021 0.848 6.573 2.159L 13.922 19.612C 14.136 20.121 13.897 20.707 13.388 20.922C 13.261 20.975 13.13 21 13 21Z"/>
<path id="path4_fill" d="M 1 2C 1.55228 2 2 1.55228 2 1C 2 0.447715 1.55228 0 1 0C 0.447715 0 0 0.447715 0 1C 0 1.55228 0.447715 2 1 2Z"/>
<path id="path5_fill" d="M 19 6L 3 6C 1.35 6 0 4.65 0 3C 0 1.35 1.35 0 3 0L 19 0C 20.65 0 22 1.35 22 3C 22 4.65 20.65 6 19 6Z"/>
</defs>
</svg>
