<svg width="166" height="160" viewBox="0 0 166 160" version="1.1" xmlns="http://www.w3.org/2000/svg" xmlns:xlink="http://www.w3.org/1999/xlink">
<title>Group.svg</title>
<desc>Created using Figma</desc>
<g id="Canvas" transform="translate(-4621 -599)">
<g id="Group">
<g id="Vector">
<use xlink:href="#path0_fill" transform="translate(4637.28 599.091)" fill="#84462D"/>
</g>
<g id="Vector">
<use xlink:href="#path1_fill" transform="translate(4637.28 599.091)" fill="#9C6144"/>
</g>
<g id="Vector">
<use xlink:href="#path2_fill" transform="translate(4621.89 711.89)" fill="#3E3E3F"/>
</g>
<g id="Vector">
<use xlink:href="#path3_fill" transform="translate(4703.95 692.491)" fill="#F7B4B4"/>
</g>
<g id="Vector">
<use xlink:href="#path4_fill" transform="translate(4678.31 692.491)" fill="#FBC8C8"/>
</g>
<g id="Vector">
<use xlink:href="#path5_fill" transform="translate(4660.36 636.214)" fill="#FBC8C8"/>
</g>
<g id="Vector">
<use xlink:href="#path6_fill" transform="translate(4660.36 636.214)" fill="#FBD7D7"/>
</g>
<g id="Group">
<g id="Vector">
<use xlink:href="#path7_fill" transform="translate(4691.13 683.69)" fill="#F79392"/>
</g>
</g>
<g id="Group">
<g id="Vector">
<use xlink:href="#path8_fill" transform="translate(4657.79 706.763)" fill="#FFFFFF"/>
</g>
</g>
<g id="Group">
<g id="Vector">
<use xlink:href="#path9_fill" transform="translate(4703.95 706.763)" fill="#FFFFFF"/>
</g>
</g>
<g id="Group">
<g id="Vector">
<use xlink:href="#path10_fill" transform="translate(4686.03 650.25)" fill="#3E3E3F"/>
</g>
</g>
<g id="Group">
<g id="Vector">
<use xlink:href="#path11_fill" transform="translate(4711.66 650.25)" fill="#3E3E3F"/>
</g>
</g>
<g id="Group">
<g id="Group">
<g id="Vector">
<use xlink:href="#path12_fill" transform="translate(4734.73 734.962)" fill="#FFFFFF"/>
</g>
</g>
<g id="Group">
<g id="Vector">
<use xlink:href="#path13_fill" transform="translate(4737.29 742.653)" fill="#9CE5F4"/>
</g>
</g>
<g id="Group">
<g id="Group">
<g id="Vector">
<use xlink:href="#path14_fill" transform="translate(4747.55 729.835)" fill="#9CE5F4"/>
</g>
</g>
<g id="Group">
<g id="Vector">
<use xlink:href="#path15_fill" transform="translate(4734.73 734.962)" fill="#9CE5F4"/>
</g>
</g>
</g>
</g>
<g id="Vector">
<use xlink:href="#path16_fill" transform="translate(4652.66 650.363)" fill="#3E3E3F"/>
</g>
</g>
</g>
<defs>
<path id="path0_fill" d="M 110.272 84.5995C 110.272 64.0905 110.272 43.5815 110.272 43.5815C 110.272 19.5117 90.7542 0 66.6764 0C 42.5985 0 23.0803 19.5117 23.0803 43.5815C 23.0803 43.5815 23.0803 64.0905 23.0803 84.5995C 23.0803 110.236 0 105.108 0 105.108C 0 105.108 2.56448 125.617 35.9027 125.617C 62.0013 125.617 66.084 125.617 66.6302 125.617C 66.643 125.617 66.6661 125.617 66.6764 125.617C 67.0687 125.617 70.7052 125.617 97.4501 125.617C 130.788 125.617 133.353 105.108 133.353 105.108C 133.353 105.108 110.272 110.236 110.272 84.5995Z"/>
<path id="path1_fill" d="M 23.0803 43.5815C 23.0803 43.5815 23.0803 64.0905 23.0803 84.5995C 23.0803 110.236 0 105.108 0 105.108C 0 105.108 2.56448 125.617 35.9027 125.617C 62.0013 125.617 66.084 125.617 66.6302 125.617C 66.643 125.617 66.6661 125.617 66.6764 125.617L 66.6764 0C 42.5985 0 23.0803 19.5117 23.0803 43.5815Z"/>
<path id="path2_fill" d="M 154.917 22.2086C 152.638 16.2841 147.745 11.7491 141.664 9.92634L 100.015 0L 82.0632 2.56362L 64.1119 0L 22.4622 9.92634C 16.3819 11.7491 11.4889 16.2841 9.20903 22.2086L 0 46.1452L 82.0632 46.1452L 164.126 46.1452L 154.917 22.2086Z"/>
<path id="path3_fill" d="M 0 19.3989L 0 65.5441L 5.12895 65.5441L 25.6448 21.9625L 25.6448 -3.44236e-06C 18.3591 11.2697 8.42174 16.5917 0 19.3989Z"/>
<path id="path4_fill" d="M 0 -3.44236e-06L 0 21.9625L 20.5158 65.5441L 25.6448 65.5441L 25.6448 19.3989C 17.223 16.5917 7.28568 11.2697 0 -3.44236e-06Z"/>
<path id="path5_fill" d="M 82.0632 14.1486C 81.3529 14.1486 80.4399 14.1486 79.4988 14.1486C 79.4988 14.1307 79.4988 14.1127 79.4988 14.0948C 79.4885 9.22134 79.3628 4.47095 78.8602 -2.58177e-06C 77.2343 5.21184 72.4259 9.02138 66.6764 9.02138C 61.5705 9.02138 57.1981 6.01682 55.1362 1.69968C 53.0744 6.01682 48.702 9.02138 43.5961 9.02138C 38.4902 9.02138 34.1178 6.01682 32.056 1.69968C 29.9941 6.01682 25.6217 9.02138 20.5158 9.02138C 14.7663 9.02138 9.95786 5.21184 8.33198 -2.58177e-06C 7.83191 4.47095 7.70369 9.22134 7.69343 14.0948C 7.69343 14.1127 7.69343 14.1307 7.69343 14.1486C 6.7497 14.1486 5.83931 14.1486 5.12895 14.1486C 2.56448 14.1486 0 16.9968 0 19.845C 0 27.7691 2.21571 38.1236 10.7144 39.5926C 16.9768 62.9266 31.7892 71.7403 43.5961 75.6755C 55.4029 71.7403 70.2154 62.9266 76.4778 39.5926C 84.9765 38.1262 87.1922 27.7691 87.1922 19.845C 87.1922 16.9968 84.6277 14.1486 82.0632 14.1486Z"/>
<path id="path6_fill" d="M 32.056 1.69968C 29.9941 6.01682 25.6217 9.02138 20.5158 9.02138C 14.7663 9.02138 9.95786 5.21184 8.33198 -2.58177e-06C 7.83191 4.47095 7.70369 9.22134 7.69343 14.0948C 7.69343 14.1127 7.69343 14.1307 7.69343 14.1486C 6.7497 14.1486 5.83931 14.1486 5.12895 14.1486C 2.56448 14.1486 0 16.9968 0 19.845C 0 27.7691 2.21571 38.1236 10.7144 39.5926C 16.9768 62.9266 31.7892 71.7403 43.5961 75.6755L 43.5961 9.02138C 38.4902 9.02138 34.1178 6.01682 32.056 1.69968Z"/>
<path id="path7_fill" d="M 0 0L 25.6448 0C 25.6448 0 25.6448 7.69086 12.8224 7.69086C 0 7.69086 0 0 0 0Z"/>
<path id="path8_fill" d="M 20.5158 0C 20.5158 2.56362 31.9662 40.6283 46.1606 51.2724L 38.4671 51.2724C 38.4671 51.2724 12.8224 17.9453 0 17.9453C 2.56448 5.12724 20.5158 0 20.5158 0Z"/>
<path id="path9_fill" d="M 25.6448 0C 25.6448 2.56362 14.1944 40.6283 0 51.2724L 7.69343 51.2724C 7.69343 51.2724 33.3382 17.9453 46.1606 17.9453C 43.5961 5.12724 25.6448 0 25.6448 0Z"/>
<path id="path10_fill" d="M 10.2425 5.12724C 10.2425 2.29701 7.94475 3.28589e-06 5.11357 3.28589e-06C 5.10844 3.28589e-06 5.10331 3.28589e-06 5.09818 3.28589e-06C 5.10074 0.0538393 5.11357 0.105112 5.11357 0.158948C 5.11357 2.98662 2.82606 5.27593 2.66089e-06 5.28619C 0.0846304 8.04208 2.33367 10.2545 5.11357 10.2545C 7.94731 10.2545 10.2425 7.95748 10.2425 5.12724Z"/>
<path id="path11_fill" d="M 10.2425 5.12724C 10.2425 2.29701 7.94475 3.28589e-06 5.11357 3.28589e-06C 5.10844 3.28589e-06 5.10331 3.28589e-06 5.09818 3.28589e-06C 5.10074 0.0538393 5.11357 0.105112 5.11357 0.158948C 5.11357 2.98662 2.82605 5.27593 1.33045e-06 5.28619C 0.0846291 8.04208 2.33367 10.2545 5.11357 10.2545C 7.94475 10.2545 10.2425 7.95748 10.2425 5.12724Z"/>
<path id="path12_fill" d="M 33.3382 20.509C 33.3382 21.919 32.1842 23.0726 30.7737 23.0726L 2.56448 23.0726C 1.15401 23.0726 0 21.919 0 20.509L 0 2.56362C 0 1.15363 1.15401 0 2.56448 0L 30.7737 0C 32.1842 0 33.3382 1.15363 33.3382 2.56362L 33.3382 20.509Z"/>
<path id="path13_fill" d="M 10.2579 0L 0 0L 0 12.8181L 10.2579 12.8181L 10.2579 0Z"/>
<path id="path14_fill" d="M 7.69343 7.69086L 0 7.69086L 0 3.84543C 0 1.73044 1.73102 0 3.84671 0C 5.96241 0 7.69343 1.73044 7.69343 3.84543L 7.69343 7.69086Z"/>
<path id="path15_fill" d="M 33.3382 5.12724L 0 5.12724L 0 2.56362C 0 1.15363 1.15401 0 2.56448 0L 30.7737 0C 32.1842 0 33.3382 1.15363 33.3382 2.56362L 33.3382 5.12724Z"/>
<path id="path16_fill" d="M 61.0807 38.3774L 41.4958 38.3774C 39.5237 38.3774 37.8004 39.4003 36.8028 40.941L 33.3382 40.941C 28.0169 40.941 17.9513 37.7262 17.9513 25.5593L 17.9513 0L 11.9684 0C 5.35719 0 0 5.3554 0 11.9644C 0 18.5734 5.35719 23.9288 11.9684 23.9288L 12.8224 23.9288L 12.8224 25.5593C 12.8224 40.6077 25.0908 46.0683 33.3382 46.0683L 36.3181 46.0683C 37.149 48.1166 39.1519 49.565 41.4984 49.565L 61.0833 49.565C 64.1735 49.565 66.6789 47.0604 66.6789 43.9712C 66.6764 40.882 64.1709 38.3774 61.0807 38.3774Z"/>
</defs>
</svg>
