<svg width="198" height="183" viewBox="0 0 198 183" version="1.1" xmlns="http://www.w3.org/2000/svg" xmlns:xlink="http://www.w3.org/1999/xlink">
<title>Group.svg</title>
<desc>Created using Figma</desc>
<g id="Canvas" transform="translate(-655 319)">
<g id="Group">
<g id="Vector">
<use xlink:href="#path0_fill" transform="translate(655 -210.441)" fill="#3E3E3F"/>
</g>
<g id="Vector">
<use xlink:href="#path1_fill" transform="translate(710.688 -312.685)" fill="#FBC8C8"/>
</g>
<g id="Vector">
<use xlink:href="#path2_fill" transform="translate(701.406 -312.797)" fill="#FBD7D7"/>
</g>
<g id="Vector">
<use xlink:href="#path3_fill" transform="translate(704.695 -319)" fill="#F37A10"/>
</g>
<g id="Vector">
<use xlink:href="#path4_fill" transform="translate(704.695 -319)" fill="#F99134"/>
</g>
<g id="Group">
<g id="Vector">
<use xlink:href="#path5_fill" transform="translate(741.625 -225.949)" fill="#FBD7D7"/>
</g>
</g>
<g id="Vector">
<use xlink:href="#path6_fill" transform="translate(713.781 -273.638)" fill="#3E3E3F"/>
</g>
<g id="Group">
<g id="Group">
<g id="Vector">
<use xlink:href="#path7_fill" transform="translate(721.324 -268.597)" fill="#9E9FA0"/>
</g>
</g>
</g>
<g id="Group">
<g id="Group">
<g id="Vector">
<use xlink:href="#path8_fill" transform="translate(761.787 -268.597)" fill="#9E9FA0"/>
</g>
</g>
</g>
</g>
</g>
<defs>
<path id="path0_fill" d="M 185.625 40.322C 183.722 36.1875 180.372 32.8966 176.211 31.0728L 129.938 18.6102L 129.938 0L 114.144 12.3913C 112.384 14.3733 109.862 15.5085 107.214 15.5085L 99 15.5085L 90.7861 15.5085C 88.1378 15.5085 85.6164 14.3733 83.8561 12.3913L 68.0625 0L 68.0625 18.6102L 21.7893 31.0728C 17.6282 32.8966 14.2777 36.1875 12.375 40.322L 0 74.4407L 99 74.4407L 198 74.4407L 185.625 40.322Z"/>
<path id="path1_fill" d="M 95.9062 53.4174C 95.9062 49.9714 92.8125 46.5254 89.7188 46.5254C 86.625 46.5254 86.625 49.9714 86.625 49.9714L 86.625 46.5254C 86.5693 18.6102 83.457 -2.17709e-06 43.3125 -2.17709e-06C 3.168 -2.17709e-06 0.0556875 18.6102 0 46.5254L 0 71.2273L 12.375 102.244L 28.1686 114.636C 29.9289 116.618 32.4503 117.753 35.0986 117.753L 43.3125 117.753L 51.5264 117.753C 54.1747 117.753 56.6961 116.618 58.4564 114.636L 74.25 102.244L 84.1283 77.4865C 92.9332 76.8941 95.9062 63.5258 95.9062 53.4174Z"/>
<path id="path2_fill" d="M 9.28125 46.5254L 9.28125 49.9714C 9.28125 49.9714 9.28125 46.5254 6.1875 46.5254C 3.09375 46.5254 0 49.9714 0 53.4174C 0 63.5258 2.97309 76.891 11.7779 77.4865L 21.6562 102.244L 37.4498 114.636C 39.2102 116.621 41.7316 117.753 44.3798 117.753L 52.5938 117.753L 52.5938 0C 12.4493 0 9.33694 18.6102 9.28125 46.5254Z"/>
<path id="path3_fill" d="M 93.4463 26.0263C 101.889 13.9421 101.898 0 101.898 0L 49.3047 0L 28.063 0C 20.0811 0 12.4767 3.40876 7.15235 9.37022C 1.82801 15.3317 -0.711961 23.2844 0.172852 31.2403L 9.13235 85.4176L 18.3672 108.559L 34.1608 120.951C 35.9211 122.933 38.4425 124.068 41.0908 124.068L 49.3047 124.068L 57.5186 124.068C 60.1669 124.068 62.6883 122.933 64.4486 120.951L 80.2422 108.559L 89.474 85.4176L 96.5525 33.8395C 97.0939 31.6714 96.6081 29.37 95.2345 27.6082C 94.7364 26.9661 94.1115 26.4575 93.4463 26.0263ZM 89.5235 52.8405L 83.336 83.8574L 83.336 83.9536L 74.0547 102.564L 70.961 102.564L 66.8896 90.3152C 65.6273 86.5156 62.0788 83.9536 58.0848 83.9536L 49.3047 83.9536L 40.5246 83.9536C 36.5306 83.9536 32.9821 86.5156 31.7198 90.3152L 27.6484 102.564L 24.5547 102.564L 15.2734 83.9536L 15.2734 83.8574L 9.08595 52.8405L 9.08595 24.8136C 9.08595 24.8136 9.11998 41.7085 49.3047 43.2935C 51.2785 43.371 53.3173 43.4237 55.4922 43.4237C 72.0469 43.4237 82.6739 37.8903 89.5235 30.7812L 89.5235 52.8405Z"/>
<path id="path4_fill" d="M 9.13544 85.4176L 18.3672 108.559L 34.1608 120.951C 35.9211 122.933 38.4425 124.068 41.0908 124.068L 49.3047 124.068L 49.3047 83.9536L 40.5246 83.9536C 36.5306 83.9536 32.9821 86.5156 31.7198 90.3152L 27.6484 102.564L 24.5547 102.564L 15.2734 83.9536L 15.2734 83.8574L 9.08595 52.8405L 9.08595 24.8136C 9.08595 24.8136 9.11998 41.7085 49.3047 43.2935L 49.3047 0L 28.063 0C 20.0811 0 12.4767 3.40876 7.15235 9.37022C 1.82801 15.3317 -0.711961 23.2844 0.172852 31.2403"/>
<path id="path5_fill" d="M 0 0L 24.75 0C 24.75 0 24.75 9.30509 12.375 9.30509C 0 9.30509 0 0 0 0Z"/>
<path id="path6_fill" d="M 60.3281 0C 52.7856 0 45.2461 5.04025 45.2461 5.04025L 40.2188 5.04025L 35.1914 5.04025C 35.1914 5.04025 27.6488 0 20.1094 0C 7.53947 0 0 5.04025 0 5.04025L 0 7.56193L 2.51213 7.56193C 2.51213 22.6827 7.53947 30.2415 20.6322 30.2415C 33.7219 30.2415 36.4475 17.6424 36.4475 14.1468C 36.4475 10.6512 40.2188 10.0805 40.2188 10.0805C 40.2188 10.0805 43.99 10.6512 43.99 14.1468C 43.99 17.6424 46.7125 30.2415 59.8053 30.2415C 72.898 30.2415 77.9254 22.6827 77.9254 7.56193L 80.4375 7.56193L 80.4375 5.04025C 80.4375 5.04025 72.8949 0 60.3281 0Z"/>
<path id="path7_fill" d="M 12.5668 0C 5.62444 0 -8.49724e-07 3.12031 -8.49724e-07 10.0805C -8.49724e-07 12.8968 0.93122 15.4868 2.48738 17.5835L 18.9399 1.0887C 17.0682 0.359802 14.8964 0 12.5668 0Z"/>
<path id="path8_fill" d="M 12.5668 0C 5.62443 0 -5.28717e-06 3.12031 -5.28717e-06 10.0805C -5.28717e-06 12.8968 0.931216 15.4868 2.48737 17.5835L 18.9399 1.0887C 17.0682 0.359802 14.8933 0 12.5668 0Z"/>
</defs>
</svg>
