<svg width="74" height="74" viewBox="0 0 74 74" version="1.1" xmlns="http://www.w3.org/2000/svg" xmlns:xlink="http://www.w3.org/1999/xlink">
<title></title>
<desc>Created using Figma</desc>
<g id="Canvas" transform="translate(-252 -21)">
<g id="Multicolor">
<g id="Group">
<g id="Vector">
<use xlink:href="#path0_fill" transform="translate(252 21)" fill="#FABC3D"/>
</g>
</g>
<g id="Group">
<g id="Vector">
<use xlink:href="#path1_fill" transform="translate(272.529 37.3923)" fill="#FBC8C8"/>
</g>
<g id="Vector">
<use xlink:href="#path2_fill" transform="translate(269 37.35)" fill="#FBD7D7"/>
</g>
<g id="Vector">
<use xlink:href="#path3_fill" transform="translate(270.251 35)" fill="#F37A10"/>
</g>
<g id="Vector">
<use xlink:href="#path4_fill" transform="translate(270.251 35)" fill="#F99134"/>
</g>
<g id="Group">
<g id="Vector">
<use xlink:href="#path5_fill" transform="translate(284.294 70.25)" fill="#FBD7D7"/>
</g>
</g>
<g id="Vector">
<use xlink:href="#path6_fill" transform="translate(273.706 52.1843)" fill="#3E3E3F"/>
</g>
<g id="Group">
<g id="Group">
<g id="Vector">
<use xlink:href="#path7_fill" transform="translate(276.574 54.0938)" fill="#9E9FA0"/>
</g>
</g>
</g>
<g id="Group">
<g id="Group">
<g id="Vector">
<use xlink:href="#path8_fill" transform="translate(291.961 54.0938)" fill="#9E9FA0"/>
</g>
</g>
</g>
</g>
</g>
</g>
<defs>
<path id="path0_fill" d="M 37 74C 57.4345 74 74 57.4345 74 37C 74 16.5655 57.4345 0 37 0C 16.5655 0 0 16.5655 0 37C 0 57.4345 16.5655 74 37 74Z"/>
<path id="path1_fill" d="M 36.4706 20.2358C 36.4706 18.9304 35.2941 17.625 34.1176 17.625C 32.9412 17.625 32.9412 18.9304 32.9412 18.9304L 32.9412 17.625C 32.92 7.05 31.7365 -8.24737e-07 16.4706 -8.24737e-07C 1.20471 -8.24737e-07 0.0211765 7.05 0 17.625L 0 26.9827L 4.70588 38.7327L 10.7118 43.4268C 11.3812 44.1776 12.34 44.6077 13.3471 44.6077L 16.4706 44.6077L 19.5941 44.6077C 20.6012 44.6077 21.56 44.1776 22.2294 43.4268L 28.2353 38.7327L 31.9918 29.3538C 35.34 29.1294 36.4706 24.0652 36.4706 20.2358Z"/>
<path id="path2_fill" d="M 3.52941 17.625L 3.52941 18.9304C 3.52941 18.9304 3.52941 17.625 2.35294 17.625C 1.17647 17.625 0 18.9304 0 20.2358C 0 24.0652 1.13059 29.1282 4.47882 29.3538L 8.23529 38.7327L 14.2412 43.4268C 14.9106 44.1788 15.8694 44.6077 16.8765 44.6077L 20 44.6077L 20 0C 4.73412 0 3.55059 7.05 3.52941 17.625Z"/>
<path id="path3_fill" d="M 35.5351 9.85942C 38.7457 5.28162 38.7493 0 38.7493 0L 18.7493 0L 10.6716 0C 7.63632 0 4.74456 1.29132 2.71985 3.54967C 0.695143 5.80802 -0.27074 8.82072 0.065731 11.8346L 3.47279 32.3583L 6.98456 41.125L 12.9904 45.8191C 13.6599 46.5699 14.6187 47 15.6257 47L 18.7493 47L 21.8728 47C 22.8799 47 23.8387 46.5699 24.5081 45.8191L 30.514 41.125L 34.0246 32.3583L 36.7163 12.8192C 36.9222 11.9979 36.7375 11.1261 36.2151 10.4587C 36.0257 10.2154 35.7881 10.0227 35.5351 9.85942ZM 34.0434 20.0173L 31.6904 31.7673L 31.6904 31.8037L 28.161 38.8537L 26.9846 38.8537L 25.4363 34.2136C 24.9563 32.7743 23.6069 31.8037 22.0881 31.8037L 18.7493 31.8037L 15.4104 31.8037C 13.8916 31.8037 12.5422 32.7743 12.0622 34.2136L 10.514 38.8537L 9.3375 38.8537L 5.80809 31.8037L 5.80809 31.7673L 3.45514 20.0173L 3.45514 9.4C 3.45514 9.4 3.46808 15.8002 18.7493 16.4006C 19.4999 16.43 20.2751 16.45 21.1022 16.45C 27.3975 16.45 31.4387 14.3538 34.0434 11.6607L 34.0434 20.0173Z"/>
<path id="path4_fill" d="M 3.47397 32.3583L 6.98456 41.125L 12.9904 45.8191C 13.6598 46.5699 14.6187 47 15.6257 47L 18.7493 47L 18.7493 31.8037L 15.4104 31.8037C 13.8916 31.8037 12.5422 32.7743 12.0622 34.2136L 10.514 38.8537L 9.3375 38.8537L 5.80808 31.8037L 5.80808 31.7673L 3.45514 20.0173L 3.45514 9.4C 3.45514 9.4 3.46808 15.8002 18.7493 16.4006L 18.7493 0L 10.6716 0C 7.63632 0 4.74456 1.29132 2.71985 3.54967C 0.695143 5.80802 -0.27074 8.82072 0.065731 11.8346"/>
<path id="path5_fill" d="M 0 0L 9.41177 0C 9.41177 0 9.41177 3.525 4.70588 3.525C 0 3.525 0 0 0 0Z"/>
<path id="path6_fill" d="M 22.9412 0C 20.0729 0 17.2059 1.90937 17.2059 1.90937L 15.2941 1.90937L 13.3824 1.90937C 13.3824 1.90937 10.5141 0 7.64706 0C 2.86706 0 0 1.90937 0 1.90937L 0 2.86465L 0.955294 2.86465C 0.955294 8.59277 2.86706 11.4562 7.84588 11.4562C 12.8235 11.4562 13.86 6.6834 13.86 5.35917C 13.86 4.03495 15.2941 3.81875 15.2941 3.81875C 15.2941 3.81875 16.7282 4.03495 16.7282 5.35917C 16.7282 6.6834 17.7635 11.4562 22.7424 11.4562C 27.7212 11.4562 29.6329 8.59277 29.6329 2.86465L 30.5882 2.86465L 30.5882 1.90937C 30.5882 1.90937 27.72 0 22.9412 0Z"/>
<path id="path7_fill" d="M 4.77882 0C 2.13882 0 -3.23127e-07 1.18205 -3.23127e-07 3.81875C -3.23127e-07 4.88565 0.354118 5.86677 0.945883 6.66107L 7.20235 0.412427C 6.49059 0.136302 5.66471 0 4.77882 0Z"/>
<path id="path8_fill" d="M 4.77882 0C 2.13882 0 -2.01057e-06 1.18205 -2.01057e-06 3.81875C -2.01057e-06 4.88565 0.354117 5.86677 0.945881 6.66107L 7.20235 0.412427C 6.49059 0.136302 5.66353 0 4.77882 0Z"/>
</defs>
</svg>
