<svg width="449" height="216" viewBox="0 0 449 216" version="1.1" xmlns="http://www.w3.org/2000/svg" xmlns:xlink="http://www.w3.org/1999/xlink">
<title>AAA</title>
<desc>Created using Figma</desc>
<g id="Canvas" transform="translate(-4338 -205)">
<g id="Apple iPhone 5S">
<use xlink:href="#path0_fill" transform="matrix(6.12323e-17 1 -1 6.12323e-17 4787 205)" fill="#FFFFFF"/>
</g>
</g>
<defs>
<path id="path0_fill" fill-rule="evenodd" d="M 2.93213 158.698L 0 158.698L 0 142.248L 2.93213 142.248L 2.93213 121.927L 0 121.927L 0 105.476L 2.93213 105.476L 2.93213 84.1875L 0 84.1875L 0 63.8664L 2.93213 63.8664L 2.93213 32.9066C 2.93213 15.8053 16.9309 1.93534 34.1994 1.93534L 145.629 1.93534L 145.629 0L 180.814 0L 180.814 1.93534L 184.733 1.93534C 201.999 1.93534 216 15.8016 216 32.9066L 216 418.029C 216 435.13 202.001 449 184.733 449L 34.1994 449C 16.9327 449 2.93213 435.134 2.93213 418.029L 2.93213 158.698ZM 91.882 38.7069C 91.3374 38.7069 90.8959 39.1359 90.8959 39.6836L 90.8959 41.6008C 90.8959 42.1403 91.3366 42.5776 91.8729 42.5776L 113.771 42.5776L 126.074 42.5776C 126.618 42.5776 127.059 42.1486 127.059 41.6008L 127.059 39.6836C 127.059 39.1442 126.628 38.7069 126.073 38.7069L 91.882 38.7069ZM 108.977 28.0625C 111.406 28.0625 113.376 26.1129 113.376 23.708C 113.376 21.303 111.406 19.3534 108.977 19.3534C 106.548 19.3534 104.579 21.303 104.579 23.708C 104.579 26.1129 106.548 28.0625 108.977 28.0625ZM 17.5874 63.8664C 16.5108 63.8664 15.638 64.7397 15.638 65.8111L 15.638 386.092C 15.638 387.166 16.5164 388.037 17.5874 388.037L 201.345 388.037C 202.421 388.037 203.294 387.163 203.294 386.092L 203.294 65.8111C 203.294 64.737 202.416 63.8664 201.345 63.8664L 17.5874 63.8664ZM 109.466 435.453C 119.722 435.453 128.036 427.221 128.036 417.067C 128.036 406.913 119.722 398.681 109.466 398.681C 99.2101 398.681 90.8959 406.913 90.8959 417.067C 90.8959 427.221 99.2101 435.453 109.466 435.453ZM 79.1674 43.5453C 80.7868 43.5453 82.0995 42.2455 82.0995 40.6422C 82.0995 39.0389 80.7868 37.7392 79.1674 37.7392C 77.548 37.7392 76.2353 39.0389 76.2353 40.6422C 76.2353 42.2455 77.548 43.5453 79.1674 43.5453ZM 109.466 433.517C 118.642 433.517 126.081 426.152 126.081 417.067C 126.081 407.981 118.642 400.616 109.466 400.616C 100.29 400.616 92.8507 407.981 92.8507 417.067C 92.8507 426.152 100.29 433.517 109.466 433.517Z"/>
</defs>
</svg>
