<svg width="872" height="1764" viewBox="0 0 872 1764" version="1.1" xmlns="http://www.w3.org/2000/svg" xmlns:xlink="http://www.w3.org/1999/xlink">
<title>Page 1</title>
<desc>Created using Figma</desc>
<g id="Canvas" transform="translate(-780 1023)">
<g id="iPhone 7 Templates_iPhone 7 Gold">
<g id="Group">
<g id="Group">
<g id="Group">
<g id="Group">
<g id="Vector">
<use xlink:href="#path0_fill" transform="translate(787 -1023)" fill="#F6E0C9"/>
</g>
</g>
<g id="Vector" opacity="0.9">
<use xlink:href="#path1_fill" transform="translate(787 -871)" fill="#F8F8FA"/>
</g>
<g id="Vector" opacity="0.9">
<use xlink:href="#path1_fill" transform="translate(787 564)" fill="#F8F8FA"/>
</g>
<g id="Vector">
<use xlink:href="#path2_fill" transform="translate(801.308 -1008.78)" fill="#F8F8FA"/>
</g>
<g id="Group">
<g id="Vector" opacity="0.5">
<use xlink:href="#path3_fill" transform="translate(1085.91 -908)" fill="#37383C"/>
</g>
<g id="Vector" opacity="0.5">
<use xlink:href="#path4_fill" transform="translate(1204 -958.269)" fill="#37383C"/>
</g>
<g id="Vector">
<use xlink:href="#path5_fill" transform="translate(1146 -901)" fill="#37383C"/>
</g>
</g>
<g id="Vector">
<use xlink:href="#path6_fill" transform="translate(780 -808)" fill="#F6E0C9"/>
</g>
<g id="Group">
<g id="Vector">
<use xlink:href="#path7_fill" transform="translate(780 -688)" fill="#F6E0C9"/>
</g>
<g id="Vector">
<use xlink:href="#path7_fill" transform="translate(780 -508)" fill="#F6E0C9"/>
</g>
</g>
<g id="Vector">
<use xlink:href="#path7_fill" transform="translate(1638 -688)" fill="#F6E0C9"/>
</g>
<g id="Vector">
<use xlink:href="#path8_fill" transform="translate(1144.97 554.975)" fill="url(#paint11_linear)"/>
</g>
<g id="Vector">
<use xlink:href="#path9_fill" transform="translate(1153.85 563.853)" fill="#F8F8FA"/>
</g>
</g>
</g>
</g>
</g>
<g id="md_integration">
<g id="Background">
<g id="Group">
<g id="Vector">
<use xlink:href="#path10_fill" transform="matrix(-4.37114e-08 1 -1 -4.37114e-08 1591 -808)" fill="#80DEEA"/>
</g>
</g>
</g>
<g id="Artwork">
<g id="Group">
<g id="Vector">
<use xlink:href="#path11_stroke" transform="matrix(-4.37114e-08 1 -1 -4.37114e-08 1199.75 -617.321)" fill="#FAFAFA"/>
</g>
<g id="Group">
<g id="Group">
<g id="Group">
<g id="Vector">
<use xlink:href="#path12_fill" transform="matrix(-4.37114e-08 1 -1 -4.37114e-08 1147.48 -732.296)" fill="#FAFAFA"/>
</g>
</g>
</g>
</g>
<g id="Group">
<g id="Vector">
<use xlink:href="#path13_fill" transform="matrix(1 -1.21411e-11 -1.21377e-11 1 970.946 -607.567)" fill="#80DEEA"/>
</g>
<g id="Vector">
<use xlink:href="#path14_fill" transform="matrix(1 -1.21411e-11 -1.21377e-11 1 1015.62 -640.25)" fill="#00BCD4"/>
</g>
<g id="Vector">
<use xlink:href="#path15_fill" transform="matrix(1 -1.21411e-11 -1.21377e-11 1 1060.3 -672.849)" fill="#00ACC1"/>
</g>
</g>
<g id="Vector">
<use xlink:href="#path16_stroke" transform="matrix(-4.37114e-08 1 -1 -4.37114e-08 1398.79 -509.768)" fill="#FAFAFA"/>
</g>
<g id="Group">
<g id="Group">
<g id="Group">
<g id="Vector">
<use xlink:href="#path17_fill" transform="matrix(-4.37114e-08 1 -1 -4.37114e-08 1514.52 -705.866)" fill="#F47C20"/>
</g>
</g>
<g id="Group">
<g id="Vector">
<use xlink:href="#path18_fill" transform="matrix(-4.37114e-08 1 -1 -4.37114e-08 1473.22 -733.086)" fill="#FAFAFA"/>
</g>
</g>
<g id="Group">
<g id="Vector">
<use xlink:href="#path19_fill" transform="matrix(-4.37114e-08 1 -1 -4.37114e-08 1487.31 -586.639)" fill="#FAA629"/>
</g>
</g>
<g id="Group">
<g id="Vector">
<use xlink:href="#path20_fill" transform="matrix(-4.37114e-08 1 -1 -4.37114e-08 1384.2 -613.736)" fill="#FFD600"/>
</g>
</g>
<g id="Group">
<g id="Vector">
<use xlink:href="#path21_fill" transform="matrix(-4.37114e-08 1 -1 -4.37114e-08 1432.21 -571.965)" fill="#FAA629"/>
</g>
</g>
</g>
<g id="Vector">
<use xlink:href="#path22_fill" transform="matrix(-4.37114e-08 1 -1 -4.37114e-08 1478.81 -697.361)" fill="#80DEEA"/>
</g>
</g>
<g id="Vector" opacity="0.54">
<use xlink:href="#path23_fill" transform="matrix(-4.37114e-08 1 -1 -4.37114e-08 1358.45 -42.5341)" fill="#FAFAFA"/>
</g>
<g id="Group">
<g id="Vector">
<use xlink:href="#path24_fill" transform="matrix(-4.37114e-08 1 -1 -4.37114e-08 1357.7 -265.646)" fill="#00ACC1"/>
</g>
<g id="Vector">
<use xlink:href="#path25_fill" transform="matrix(-4.37114e-08 1 -1 -4.37114e-08 1260.18 -265.646)" fill="#00ACC1"/>
</g>
<g id="Vector">
<use xlink:href="#path26_fill" transform="matrix(-4.37114e-08 1 -1 -4.37114e-08 1162.57 -265.646)" fill="#00ACC1"/>
</g>
<g id="Vector">
<use xlink:href="#path27_fill" transform="matrix(-4.37114e-08 1 -1 -4.37114e-08 1322.86 -244.552)" fill="#FFFFFF"/>
</g>
<g id="Vector">
<use xlink:href="#path28_fill" transform="matrix(-4.37114e-08 1 -1 -4.37114e-08 1318.02 -204.699)" fill="#80DEEA"/>
</g>
<g id="Vector">
<use xlink:href="#path27_fill" transform="matrix(-4.37114e-08 1 -1 -4.37114e-08 1225.34 -244.552)" fill="#FFFFFF"/>
</g>
<g id="Vector">
<use xlink:href="#path28_fill" transform="matrix(-4.37114e-08 1 -1 -4.37114e-08 1220.5 -204.699)" fill="#80DEEA"/>
</g>
<g id="Vector">
<use xlink:href="#path29_fill" transform="matrix(-4.37114e-08 1 -1 -4.37114e-08 1127.73 -244.552)" fill="#FFFFFF"/>
</g>
<g id="Vector">
<use xlink:href="#path30_fill" transform="matrix(-4.37114e-08 1 -1 -4.37114e-08 1122.9 -204.699)" fill="#80DEEA"/>
</g>
</g>
<g id="Group">
<g id="Group">
<g id="Vector">
<use xlink:href="#path31_fill" transform="matrix(-4.37114e-08 1 -1 -4.37114e-08 1364.07 192.066)" fill="#FAFAFA"/>
</g>
</g>
<g id="Group">
<g id="Vector">
<use xlink:href="#path32_fill" transform="matrix(-4.37114e-08 1 -1 -4.37114e-08 1246.92 127.015)" fill="#00ACC1"/>
</g>
</g>
<g id="Group">
<g id="Vector">
<use xlink:href="#path33_fill" transform="matrix(-4.37114e-08 1 -1 -4.37114e-08 1251.67 194.167)" fill="#80DEEA"/>
</g>
</g>
<g id="Group">
<g id="Vector">
<use xlink:href="#path34_fill" transform="matrix(-4.37114e-08 1 -1 -4.37114e-08 1245.92 288.465)" fill="#FAA629"/>
</g>
</g>
<g id="Group">
<g id="Vector">
<use xlink:href="#path35_fill" transform="matrix(-4.37114e-08 1 -1 -4.37114e-08 1250.71 289.632)" fill="#FFD600"/>
</g>
</g>
<g id="Group">
<g id="Vector">
<use xlink:href="#path36_fill" transform="matrix(-4.37114e-08 1 -1 -4.37114e-08 1174.57 256.738)" fill="#F47C20"/>
</g>
</g>
<g id="Group">
<g id="Vector">
<use xlink:href="#path37_fill" transform="matrix(-4.37114e-08 1 -1 -4.37114e-08 1226.42 258.95)" fill="#00ACC1"/>
</g>
</g>
</g>
<g id="Vector">
<use xlink:href="#path38_stroke" transform="matrix(-4.37114e-08 1 -1 -4.37114e-08 1398.79 -617.321)" fill="#FAFAFA"/>
</g>
<g id="Vector">
<use xlink:href="#path39_fill" transform="matrix(-4.37114e-08 1 -1 -4.37114e-08 1414.04 -632.579)" fill="#FAFAFA"/>
</g>
</g>
</g>
</g>
</g>
<defs>
<linearGradient id="paint11_linear" x1="0" y1="0" x2="1" y2="0" gradientUnits="userSpaceOnUse" gradientTransform="matrix(-16.9822 -141.046 141.046 -16.9822 8.48915 145.855)">
<stop offset="0" stop-color="#F6E0C9"/>
<stop offset="0.9985" stop-color="#E2C39C"/>
</linearGradient>
<path id="path0_fill" d="M 858 133.96L 858 1629.53C 858 1665.32 843.94 1699.2 818.62 1724.52C 793.31 1749.82 759.54 1764 723.75 1764L 134.37 1764C 98.57 1764 64.73 1749.82 39.42 1724.52C 14.11 1699.2 0 1665.32 0 1629.53L 0 133.96C 0 98.17 14.11 64.54 39.42 39.23C 64.73 13.92 98.57 0 134.37 0L 723.75 0C 759.54 0 793.31 13.92 818.62 39.23C 843.94 64.54 858 98.17 858 133.96Z"/>
<path id="path1_fill" d="M 858 0L 0 0L 0 24L 858 24L 858 0Z"/>
<path id="path2_fill" d="M 709.384 1735.56L 120 1735.56C 53.726 1735.56 1.3916e-05 1681.84 1.3916e-05 1615.56L 1.3916e-05 120C 1.3916e-05 53.726 53.726 -1.29395e-05 120 -1.29395e-05L 709.385 -1.29395e-05C 775.659 -1.29395e-05 829.385 53.726 829.385 120L 829.385 1615.56C 829.384 1681.84 775.658 1735.56 709.384 1735.56Z"/>
<path id="path3_fill" d="M 15 30C 23.2843 30 30 23.2843 30 15C 30 6.71573 23.2843 0 15 0C 6.71573 0 0 6.71573 0 15C 0 23.2843 6.71573 30 15 30Z"/>
<path id="path4_fill" d="M 12 24C 18.6274 24 24 18.6274 24 12C 24 5.37257 18.6274 -1.24512e-05 12 -1.24512e-05C 5.37258 -1.24512e-05 0 5.37257 0 12C 0 18.6274 5.37258 24 12 24Z"/>
<path id="path5_fill" d="M 132 16L 8 16C 3.6 16 0 12.4 0 8C 0 3.6 3.6 0 8 0L 132 0C 136.4 0 140 3.6 140 8C 140 12.4 136.4 16 132 16Z"/>
<path id="path6_fill" d="M 7 60C 3.15 60 0 56.85 0 53L 0 7C 0 3.15 3.15 0 7 0C 10.85 0 14 3.15 14 7L 14 53C 14 56.85 10.85 60 7 60Z"/>
<path id="path7_fill" d="M 7 120C 3.15 120 0 116.85 0 113L 0 7C 0 3.15 3.15 0 7 0C 10.85 0 14 3.15 14 7L 14 113C 14 116.85 10.85 120 7 120Z"/>
<path id="path8_fill" d="M 71.025 142.05C 110.251 142.05 142.05 110.251 142.05 71.025C 142.05 31.799 110.251 -2.44141e-05 71.025 -2.44141e-05C 31.799 -2.44141e-05 -2.44141e-05 31.799 -2.44141e-05 71.025C -2.44141e-05 110.251 31.799 142.05 71.025 142.05Z"/>
<path id="path9_fill" d="M 62.147 124.294C 96.4698 124.294 124.294 96.4698 124.294 62.147C 124.294 27.8242 96.4698 2.73438e-05 62.147 2.73438e-05C 27.8242 2.73438e-05 2.73438e-05 27.8242 2.73438e-05 62.147C 2.73438e-05 96.4698 27.8242 124.294 62.147 124.294Z"/>
<path id="path10_fill" d="M 1334 0L 0 0L 0 750L 1334 750L 1334 0Z"/>
<path id="path11_stroke" d="M -2.5444e-06 173.37L 187.427 173.37L 187.427 158.37L -2.5444e-06 158.37L -2.5444e-06 173.37ZM 187.427 173.37C 196.946 173.37 204.515 165.637 204.515 156.285L 189.515 156.285C 189.515 157.434 188.58 158.37 187.427 158.37L 187.427 173.37ZM 204.515 156.285L 204.515 9.58547L 189.515 9.58547L 189.515 156.285L 204.515 156.285ZM 204.515 9.58547C 204.515 8.43745 205.448 7.50001 206.603 7.50001L 206.603 -7.49999C 197.253 -7.49999 189.515 0.0644506 189.515 9.58547L 204.515 9.58547ZM 206.603 7.50001L 361.097 7.50001L 361.097 -7.49999L 206.603 -7.49999L 206.603 7.50001Z"/>
<path id="path12_fill" d="M 114.974 229.884C 178.473 229.884 229.948 178.423 229.948 114.942C 229.948 51.4614 178.473 -1.01748e-05 114.974 -1.01748e-05C 51.4757 -1.01748e-05 2.5444e-06 51.4614 2.5444e-06 114.942C 2.5444e-06 178.423 51.4757 229.884 114.974 229.884Z"/>
<path id="path13_fill" d="M 33.5075 0L -5.08739e-06 0L -5.08739e-06 33.8502L 33.5075 33.8502L 33.5075 0Z"/>
<path id="path14_fill" d="M 33.5074 -1.01776e-05L 0 -1.01776e-05L 0 66.4499L 33.5074 66.4499L 33.5074 -1.01776e-05Z"/>
<path id="path15_fill" d="M 33.5074 1.01776e-05L 5.08739e-06 1.01776e-05L 5.08739e-06 99.0495L 33.5074 99.0495L 33.5074 1.01776e-05Z"/>
<path id="path16_stroke" d="M 1.01776e-05 7.5L 79.8733 7.5L 79.8733 -7.5L 1.01776e-05 -7.5L 1.01776e-05 7.5ZM 79.8733 7.5C 81.0267 7.5 81.9614 8.43587 81.9614 9.58547L 96.9614 9.58547C 96.9614 0.232726 89.3918 -7.5 79.8733 -7.5L 79.8733 7.5ZM 81.9614 9.58547L 81.9614 164.62L 96.9614 164.62L 96.9614 9.58547L 81.9614 9.58547ZM 81.9614 164.62C 81.9614 174.141 89.6992 181.705 99.0495 181.705L 99.0495 166.705C 97.8945 166.705 96.9614 165.768 96.9614 164.62L 81.9614 164.62ZM 99.0495 181.705L 253.543 181.705L 253.543 166.705L 99.0495 166.705L 99.0495 181.705Z"/>
<path id="path17_fill" d="M 52.1094 85.0594C 69.0345 64.9716 99.1329 62.3877 119.226 79.3081L 163.082 27.2132C 114.14 -13.9626 41.1039 -7.71122 -2.36966e-14 41.2163L 52.1094 85.0594Z"/>
<path id="path18_fill" d="M 79.3301 43.7597C 62.405 63.8475 64.9896 93.9375 85.083 110.858C 95.0046 119.193 107.344 122.777 119.35 121.944L 124.436 189.876C 95.3381 192.043 65.3231 183.291 41.2278 163.036C -7.71335 121.86 -13.9665 48.8442 27.2208 -2.369e-14L 79.3301 43.7597Z"/>
<path id="path19_fill" d="M 0 52.0949L 43.8553 -1.27185e-06C 61.6975 15.0033 73.8703 34.2576 80.1234 55.0956L 14.9241 74.7666C 12.3395 66.1814 7.337 58.2629 0 52.0949Z"/>
<path id="path20_fill" d="M 32.8497 16.0869C 36.9351 11.1692 39.9366 5.75128 41.7709 2.5437e-06L 106.637 20.838C 102.134 34.7577 94.9641 48.094 84.9591 59.93C 64.1154 84.6855 35.0175 98.5219 5.08588 100.772L 2.36966e-14 32.8406C 12.3395 32.0071 24.2621 26.2558 32.8497 16.0869Z"/>
<path id="path21_fill" d="M 0.25012 19.671L 65.4494 -2.5437e-06C 72.2028 22.3383 72.1194 46.427 64.8657 68.8486L 5.08881e-06 48.0107C 3.00151 38.7586 3.00149 28.8397 0.25012 19.671Z"/>
<path id="path22_fill" d="M 80.04 160.036C 124.245 160.036 160.08 124.21 160.08 80.0178C 160.08 35.8252 124.245 2.5437e-06 80.04 2.5437e-06C 35.8351 2.5437e-06 -2.5444e-06 35.8252 -2.5444e-06 80.0178C -2.5444e-06 124.21 35.8351 160.036 80.04 160.036Z"/>
<path id="path23_fill" d="M 299.233 1.01748e-05L -2.03552e-05 145.366L 218.192 288.064L 331.082 100.439L 299.233 1.01748e-05Z"/>
<path id="path24_fill" d="M 249.291 88.2696L 0 88.2696L 0 14.3365C 0 6.41808 6.41989 5.08739e-06 14.3405 5.08739e-06L 234.951 5.08739e-06C 242.871 5.08739e-06 249.291 6.41808 249.291 14.3365L 249.291 88.2696L 249.291 88.2696Z"/>
<path id="path25_fill" d="M 249.291 5.08739e-06L 0 5.08739e-06L 0 88.2696L 249.291 88.2696L 249.291 5.08739e-06Z"/>
<path id="path26_fill" d="M 234.951 88.2696L 14.3405 88.2696C 6.41989 88.2696 0 81.8515 0 73.9331L 0 1.01748e-05L 249.291 1.01748e-05L 249.291 73.9331C 249.291 81.8515 242.871 88.2696 234.951 88.2696Z"/>
<path id="path27_fill" d="M 9.338 18.6708C 14.4952 18.6708 18.676 14.4912 18.676 9.33541C 18.676 4.17961 14.4952 -5.08739e-06 9.338 -5.08739e-06C 4.18077 -5.08739e-06 -1.01776e-05 4.17961 -1.01776e-05 9.33541C -1.01776e-05 14.4912 4.18077 18.6708 9.338 18.6708Z"/>
<path id="path28_fill" d="M 136.318 9.002L 4.50225 9.002C 2.001 9.002 -2.03552e-05 7.00156 -2.03552e-05 4.50101C -2.03552e-05 2.00045 2.001 1.01748e-05 4.50225 1.01748e-05L 136.318 1.01748e-05C 138.819 1.01748e-05 140.82 2.00045 140.82 4.50101C 140.82 7.00156 138.819 9.002 136.318 9.002Z"/>
<path id="path29_fill" d="M 9.338 18.6708C 14.4952 18.6708 18.676 14.4912 18.676 9.33542C 18.676 4.17961 14.4952 0 9.338 0C 4.18077 0 -1.01776e-05 4.17961 -1.01776e-05 9.33542C -1.01776e-05 14.4912 4.18077 18.6708 9.338 18.6708Z"/>
<path id="path30_fill" d="M 136.318 9.00198L 4.50225 9.00198C 2.001 9.00198 -2.03552e-05 7.00157 -2.03552e-05 4.50101C -2.03552e-05 2.00045 2.001 -1.01748e-05 4.50225 -1.01748e-05L 136.318 -1.01748e-05C 138.819 -1.01748e-05 140.82 2.00045 140.82 4.50101C 140.82 7.00157 138.819 9.00198 136.318 9.00198Z"/>
<path id="path31_fill" d="M 80.8078 125.397C 86.9775 128.898 92.5636 133.065 97.5661 137.65C 123.079 115.145 159.18 107.393 192.03 118.145C 200.951 77.8865 183.359 34.7103 145.757 13.0388C 99.3171 -13.8005 39.8706 2.11967 13.0239 48.63C 0.517617 70.2181 -2.65061 94.6402 2.10176 117.229C 27.3644 108.977 55.962 111.061 80.8078 125.397Z"/>
<path id="path32_fill" d="M 131.935 72.3494C 125.682 70.2656 119.512 67.5983 113.509 64.0976C 88.6635 49.761 72.4888 26.0058 66.9861 0C 44.9751 7.16826 25.4652 22.1716 13.0424 43.7597C -13.8044 90.1867 2.12031 149.617 48.6436 176.456C 85.7454 197.877 131.018 192.043 161.45 165.203C 135.604 141.782 124.515 106.107 131.935 72.3494Z"/>
<path id="path33_fill" d="M 46.4398 68.923C 52.3595 72.3405 58.5293 75.0911 64.8658 77.1749C 66.9502 67.7561 70.5352 58.4207 75.6211 49.5854C 81.0405 40.1666 87.7939 32.0815 95.5477 25.2467C 90.5452 20.6623 84.8758 16.5781 78.7894 12.994C 53.9436 -1.34257 25.346 -3.42635 -1.89573e-13 4.82548C 5.41938 30.8313 21.5107 54.5032 46.4398 68.923Z"/>
<path id="path34_fill" d="M 113.974 8.25184C 108.054 4.83441 101.884 2.08381 95.5477 1.01748e-05C 93.4633 9.41877 89.8783 18.7542 84.7924 27.5895C 72.2862 49.1776 52.7764 64.1809 30.8487 71.3492C 35.6011 93.9375 32.4329 118.36 19.9266 139.948C 14.5073 149.366 7.75386 157.452 -2.03552e-05 164.286C 5.00248 168.871 10.672 172.955 16.7583 176.539C 63.1982 203.379 122.645 187.458 149.491 140.948C 176.338 94.4376 160.497 35.0911 113.974 8.25184Z"/>
<path id="path35_fill" d="M 0 24.2867C 15.4244 38.2898 25.5961 56.5438 29.6815 76.1315C 51.6925 68.9632 71.2023 53.9599 83.6252 32.3718C 88.711 23.5365 92.2961 14.2844 94.3805 4.78233C 61.6141 -5.97006 25.5961 1.78166 0 24.2867Z"/>
<path id="path36_fill" d="M 51.7361 68.5986C 64.2423 47.0104 67.4106 22.5883 62.6582 -1.01748e-05C 43.3986 6.25138 22.2214 6.58479 2.29476 -1.01748e-05C -5.20899 33.7575 5.96317 69.4321 31.8094 92.9373C 39.4799 86.1025 46.2333 78.0173 51.7361 68.5986Z"/>
<path id="path37_fill" d="M 30.682 5.08739e-06C 23.0115 6.83486 16.1747 14.92 10.7554 24.3387C 5.66948 33.174 2.08433 42.4261 -4.07105e-05 51.9282C 19.9266 58.513 41.1039 58.1796 60.3635 51.9282C 56.2781 32.2572 46.1064 13.9198 30.682 5.08739e-06Z"/>
<path id="path38_stroke" d="M -2.5444e-06 7.5L 80.5402 7.5L 80.5402 -7.5L -2.5444e-06 -7.5L -2.5444e-06 7.5Z"/>
<path id="path39_fill" d="M 15.2576 30.5068C 23.6842 30.5068 30.5152 23.6776 30.5152 15.2534C 30.5152 6.82918 23.6842 0 15.2576 0C 6.83107 0 -5.08881e-06 6.82918 -5.08881e-06 15.2534C -5.08881e-06 23.6776 6.83107 30.5068 15.2576 30.5068Z"/>
</defs>
</svg>
