<svg width="57" height="57" viewBox="0 0 57 57" version="1.1" xmlns="http://www.w3.org/2000/svg" xmlns:xlink="http://www.w3.org/1999/xlink">
<title>AAA</title>
<desc>Created using Figma</desc>
<g id="Canvas" transform="translate(-2097 616)">
<g id="airplane">
<g id="Vector">
<use xlink:href="#path0_fill" transform="translate(2097.06 -579.268)" fill="#D8DBDB"/>
</g>
<g id="Vector">
<use xlink:href="#path1_fill" transform="translate(2108.14 -610.627)" fill="#676767"/>
</g>
<g id="Vector">
<use xlink:href="#path2_fill" transform="translate(2097 -610.875)" fill="#D8DBDB"/>
</g>
<g id="Vector">
<use xlink:href="#path3_fill" transform="translate(2102.09 -615.965)" fill="#E4E7E7"/>
</g>
<g id="Vector">
<use xlink:href="#path4_fill" transform="translate(2102.11 -616)" fill="#DDE0E0"/>
</g>
<g id="Vector">
<use xlink:href="#path5_fill" transform="translate(2112.59 -603.776)" fill="#C7CACA"/>
</g>
<g id="Vector">
<use xlink:href="#path6_fill" transform="translate(2097.03 -606.935)" fill="#27AE60"/>
</g>
<g id="Vector">
<use xlink:href="#path7_fill" transform="translate(2112.59 -593.767)" fill="#38A592"/>
</g>
</g>
</g>
<defs>
<path id="path0_fill" d="M 10.1984 1.07198L 19.1846 10.0138C 19.6739 10.5032 20.5636 17.5766 20.0743 18.066L 18.2948 19.8455C 17.8055 20.3348 17.0047 20.3348 16.5154 19.8455L 15.5811 18.9112L 8.46343 11.7933C 5.57184 8.9017 2.63575 6.01004 1.25671 4.58647L 0.366983 3.69672C -0.122328 3.2074 -0.122328 2.40655 0.366983 1.91723L 2.14644 0.137732C 2.63575 -0.351589 9.70896 0.582662 10.1984 1.07198Z"/>
<path id="path1_fill" d="M 2.44678 -9.65193e-08C 1.11225 -9.65193e-08 -3.86069e-07 1.11216 -3.86069e-07 2.44683C -3.86069e-07 3.78151 1.11213 4.89367 2.44678 4.89367C 3.78143 4.89367 4.89356 3.78151 4.89356 2.44683C 4.89356 1.11216 3.78132 -9.65193e-08 2.44678 -9.65193e-08ZM 10.0094 2.66913C 8.67488 2.66913 7.56264 3.78129 7.56264 5.11596C 7.56264 6.45064 8.67477 7.5628 10.0094 7.5628C 11.3441 7.5628 12.4562 6.45064 12.4562 5.11596C 12.4562 3.78129 11.344 2.66913 10.0094 2.66913ZM 37.8132 30.0287C 37.8132 28.6941 36.7011 27.5818 35.3664 27.5818C 34.0318 27.5818 32.9196 28.694 32.9196 30.0287C 32.9196 31.3632 34.0318 32.4755 35.3664 32.4755C 36.7011 32.4755 37.8132 31.4077 37.8132 30.0287ZM 38.0356 35.1446C 36.7011 35.1446 35.5888 36.2568 35.5888 37.5915C 35.5888 38.926 36.7009 40.0383 38.0356 40.0383C 39.3701 40.0383 40.4824 38.9261 40.4824 37.5915C 40.4823 36.2568 39.3701 35.1446 38.0356 35.1446Z"/>
<path id="path2_fill" d="M 33.3424 9.76749L 42.1507 18.576C 43.1294 19.5547 52.8273 46.6472 51.8485 47.626L 48.3341 51.1405C 47.3554 52.1192 45.7985 52.1192 44.8197 51.1405L 25.3793 26.4501L 0.734052 7.09824C -0.244684 6.11949 -0.244684 4.56251 0.734052 3.58376L 4.24846 0.0692721C 5.2272 -0.909371 32.3636 8.78873 33.3424 9.76749Z"/>
<path id="path3_fill" d="M 50.8479 1.06731C 53.2947 3.51414 51.1148 9.60875 48.2233 12.5449L 16.4158 44.3086C 13.4797 47.2447 2.98095 53.8288 0.534282 51.382C -1.91239 48.9353 4.67151 38.4364 7.60761 35.5002L 39.3706 3.69204C 42.3066 0.755888 48.4012 -1.37942 50.8479 1.06731Z"/>
<path id="path4_fill" d="M 9.77296 37.6702L 41.5359 5.90659C 44.0271 3.41536 48.7872 1.50235 51.6343 2.4366C 51.4564 1.90278 51.1894 1.45785 50.8335 1.05753C 48.3867 -1.3893 42.2922 0.790509 39.3561 3.72666L 7.59308 35.4903C 4.65699 38.4265 -1.88241 48.9253 0.519758 51.3722C 0.875672 51.7281 1.45399 51.906 2.16571 51.906C 2.21032 48.0802 7.28167 40.1615 9.77296 37.6702Z"/>
<path id="path5_fill" d="M 7.16985e-07 11.6557L 5.02696 15.5705L 17.8835 2.71375L 17.75 2.58023C 17.483 2.31332 14.9919 1.29006 11.6109 1.37885e-08C 11.6109 0.000112969 7.16985e-07 11.6557 7.16985e-07 11.6557Z"/>
<path id="path6_fill" d="M 29.2686 27.4929L 44.7497 47.2007C 45.6394 48.0904 47.063 48.1349 48.0417 47.3786L 30.9591 25.8025L 29.2686 27.4929ZM 22.1508 16.994L 0.441604 2.41298e-07C -0.225721 0.978756 -0.136714 2.31332 0.708511 3.15856L 20.4603 18.64L 22.1508 16.994Z"/>
<path id="path7_fill" d="M 4.89345 5.47189L 6.5839 3.8259L 1.69045 -2.89558e-07L 7.16985e-07 1.64598L 4.89345 5.47189Z"/>
</defs>
</svg>
