<svg width="18" height="18" viewBox="0 0 18 18" version="1.1" xmlns="http://www.w3.org/2000/svg" xmlns:xlink="http://www.w3.org/1999/xlink">
<title>Shape.svg</title>
<desc>Created using Figma</desc>
<g id="Canvas" transform="translate(-109 697)">
<g id="Shape">
<use xlink:href="#path0_fill" transform="translate(109 -697)" fill="#FFFFFF"/>
</g>
</g>
<defs>
<path id="path0_fill" fill-rule="evenodd" d="M 3.6 7.8C 5 10.6 7.4 12.9 10.2 14.4L 12.4 12.2C 12.7 11.9 13.1 11.8 13.4 12C 14.5 12.4 15.7 12.6 17 12.6C 17.6 12.6 18 13 18 13.6L 18 17C 18 17.6 17.6 18 17 18C 7.6 18 0 10.4 0 1C 0 0.4 0.4 0 1 0L 4.5 0C 5.1 0 5.5 0.4 5.5 1C 5.5 2.2 5.7 3.4 6.1 4.6C 6.2 4.9 6.1 5.3 5.9 5.6L 3.6 7.8Z"/>
</defs>
</svg>
