<svg width="70" height="72" viewBox="0 0 70 72" version="1.1" xmlns="http://www.w3.org/2000/svg" xmlns:xlink="http://www.w3.org/1999/xlink">
<title>Vector</title>
<desc>Created using Figma</desc>
<g id="Canvas" transform="translate(2250 1149)">
<g id="Vector">
<use xlink:href="#path0_fill" transform="matrix(-0.467053 0.884229 -0.884229 -0.467053 -2180.99 -1126.53)" fill="#454545"/>
</g>
</g>
<defs>
<path id="path0_fill" d="M 49.0269 21.904C 52.0269 20.644 54.3169 18.904 55.2769 17.254C 55.5529 16.8209 55.6987 16.3176 55.6969 15.804C 55.696 15.5828 55.6375 15.3656 55.5269 15.174C 55.2757 14.7152 54.8925 14.3424 54.4268 14.104C 52.7768 13.154 49.8869 12.804 46.6969 13.184C 43.4729 13.7142 40.2962 14.5 37.1969 15.534L 35.0368 16.164L 31.0368 11.924C 31.3561 11.8374 31.6281 11.6277 31.7931 11.3409C 31.958 11.0541 32.0025 10.7136 31.9168 10.394L 31.5468 9.01404C 31.4619 8.69386 31.2533 8.42051 30.9669 8.25404C 30.8189 8.16294 30.6532 8.10425 30.4808 8.08185C 30.3084 8.05944 30.1333 8.07382 29.9669 8.12404L 27.9068 8.67404L 27.3369 8.06404C 27.5933 7.95978 27.8078 7.77337 27.9469 7.53404C 28.038 7.38601 28.0966 7.22034 28.119 7.04797C 28.1415 6.8756 28.1271 6.70045 28.0769 6.53404L 27.7069 5.14404C 27.6641 4.98444 27.5899 4.83499 27.4886 4.70448C 27.3872 4.57397 27.2609 4.46503 27.1168 4.38405C 26.9765 4.30128 26.8208 4.24795 26.6592 4.22732C 26.4976 4.20669 26.3335 4.21918 26.1768 4.26404L 24.2868 4.76404L 20.2268 0.454039C 20.1329 0.355596 20.0251 0.271377 19.9068 0.204039C 19.5683 0.00757518 19.1668 -0.0497925 18.7868 0.044035L 16.0569 0.774046C 15.7571 0.850416 15.4989 1.04051 15.3369 1.30404C 15.2264 1.48468 15.1679 1.6923 15.1679 1.90404C 15.1679 2.11577 15.2264 2.32341 15.3369 2.50404L 22.3369 14.254C 22.3925 14.36 22.4393 14.4704 22.4768 14.584L 23.7169 19.234C 19.2869 20.534 15.1969 21.924 11.8769 23.234L 10.9768 23.604L 3.50687 18.314L 3.37686 18.224C 3.00103 18.0196 2.56251 17.9625 2.14688 18.064L 0.87686 18.404C 0.727543 18.4398 0.586884 18.5052 0.463225 18.5962C 0.339566 18.6872 0.23538 18.8021 0.156829 18.934C 0.0446983 19.124 -0.00935076 19.3427 0.00131119 19.563C 0.0119731 19.7834 0.0869384 19.9958 0.216887 20.174L 4.29684 26.104C 4.34594 26.1932 4.38613 26.287 4.41684 26.384L 4.61685 27.114C 4.28346 27.3821 3.99633 27.703 3.76688 28.064C 3.6504 28.2498 3.57184 28.4568 3.5358 28.673C 3.49975 28.8893 3.50691 29.1106 3.55685 29.324C 3.61747 29.5367 3.72045 29.735 3.85965 29.9068C 3.99885 30.0787 4.17139 30.2206 4.36685 30.324C 4.7431 30.5202 5.14818 30.6552 5.56686 30.724L 5.76688 31.474C 5.77836 31.5737 5.77836 31.6744 5.76688 31.774L 5.18686 38.924C 5.16303 39.1423 5.20219 39.3627 5.29965 39.5594C 5.39711 39.7561 5.54879 39.9208 5.73685 40.034L 5.73685 40.034C 6.00403 40.1858 6.32053 40.2254 6.61685 40.144L 7.92685 39.794C 8.34544 39.6786 8.70353 39.4064 8.92685 39.034L 8.97684 38.934L 12.8969 30.494L 13.8969 30.374C 17.4569 29.874 21.6868 29.044 26.1768 27.974L 27.4168 32.624C 27.4273 32.7438 27.4273 32.8643 27.4168 32.984L 27.2069 46.634C 27.1987 46.8453 27.2484 47.0548 27.3506 47.2398C 27.4528 47.4249 27.6037 47.5785 27.7868 47.684C 27.9203 47.761 28.0678 47.8105 28.2207 47.8294C 28.3736 47.8483 28.5287 47.8362 28.6768 47.794L 31.4268 47.064C 31.7994 46.9527 32.1146 46.702 32.3069 46.364C 32.3732 46.248 32.4237 46.1235 32.4569 45.994L 33.8369 40.314L 35.7268 39.814C 35.8858 39.7722 36.0351 39.6994 36.1659 39.5998C 36.2968 39.5002 36.4066 39.3758 36.4893 39.2337C 36.572 39.0916 36.6258 38.9345 36.6477 38.7716C 36.6696 38.6086 36.6591 38.4429 36.6169 38.284L 36.2469 36.894C 36.1671 36.5996 35.9834 36.3442 35.7296 36.175C 35.4758 36.0058 35.1693 35.9344 34.8669 35.974L 35.0669 35.164L 37.1269 34.614C 37.4478 34.5247 37.7207 34.3128 37.8869 34.024C 37.9697 33.8838 38.0239 33.7284 38.0462 33.5671C 38.0685 33.4057 38.0585 33.2415 38.0169 33.084L 37.6568 31.704C 37.5674 31.3831 37.3556 31.1102 37.0669 30.944C 36.9253 30.8599 36.7683 30.805 36.6051 30.7827C 36.4419 30.7603 36.2758 30.771 36.1169 30.814L 36.1169 30.814L 37.4669 25.144L 39.6768 24.614C 42.8664 23.9711 45.9997 23.0749 49.0468 21.934L 49.0269 21.904Z"/>
</defs>
</svg>
