<svg width="16" height="15" viewBox="0 0 16 15" version="1.1" xmlns="http://www.w3.org/2000/svg" xmlns:xlink="http://www.w3.org/1999/xlink">
<title>Group.svg</title>
<desc>Created using Figma</desc>
<g id="Canvas" transform="translate(-1065 186)">
<g id="Group">
<g id="Group">
<g id="Vector">
<use xlink:href="#path0_fill" transform="translate(1065 -186)" fill="#FFFFFF"/>
</g>
</g>
<g id="Group">
<g id="Vector">
<use xlink:href="#path1_fill" transform="translate(1069.21 -174.981)" fill="#FFFFFF"/>
</g>
</g>
</g>
</g>
<defs>
<path id="path0_fill" d="M 0.438935 7.59714C -0.167389 7.90422 -0.142219 8.35403 0.493751 8.5984L 2.37537 9.31798C 3.01134 9.56073 3.97284 9.42827 4.51261 9.02063L 12.6857 2.79089C 13.2232 2.38163 13.2808 2.44219 12.8138 2.92551L 6.35228 9.60993C 5.88411 10.0922 6.02227 10.6825 6.65991 10.921L 6.88029 11.0042C 7.51794 11.2421 8.55831 11.6433 9.19148 11.8919L 11.2789 12.7143C 11.9127 12.9629 12.4312 13.1695 12.4323 13.1733C 12.4329 13.177 12.4357 13.1884 12.439 13.1895C 12.4424 13.1906 12.5917 12.6694 12.7713 12.032L 15.9528 0.728372C 16.1323 0.0904226 15.7839 -0.180436 15.1781 0.126645L 0.438935 7.59714Z"/>
<path id="path1_fill" d="M 1.39659 3.97653C 1.35911 4.08412 2.68363 2.1227 2.68363 2.1227C 3.05783 1.57017 2.84584 0.911134 2.21266 0.66136L 0.76845 0.0893679C 0.135277 -0.160946 -0.167885 0.132619 0.0944453 0.744618C 0.0944453 0.745158 1.43462 3.86624 1.39659 3.97653Z"/>
</defs>
</svg>
