<svg width="16" height="16" viewBox="0 0 16 16" version="1.1" xmlns="http://www.w3.org/2000/svg" xmlns:xlink="http://www.w3.org/1999/xlink">
<title>Vector.svg</title>
<desc>Created using Figma</desc>
<g id="Canvas" transform="translate(-379 192)">
<g id="Vector">
<use xlink:href="#path0_fill" transform="translate(379 -192)" fill="#FFFFFF"/>
</g>
</g>
<defs>
<path id="path0_fill" d="M 3 0L 1 0C 0.45 0 0 0.45 0 1L 0 3C 0 3.55 0.45 4 1 4L 3 4C 3.55 4 4 3.55 4 3L 4 1C 4 0.45 3.55 0 3 0ZM 9 0L 7 0C 6.45 0 6 0.45 6 1L 6 3C 6 3.55 6.45 4 7 4L 9 4C 9.55 4 10 3.55 10 3L 10 1C 10 0.45 9.55 0 9 0ZM 15 0L 13 0C 12.45 0 12 0.45 12 1L 12 3C 12 3.55 12.45 4 13 4L 15 4C 15.55 4 16 3.55 16 3L 16 1C 16 0.45 15.55 0 15 0ZM 3 6L 1 6C 0.45 6 0 6.45 0 7L 0 9C 0 9.55 0.45 10 1 10L 3 10C 3.55 10 4 9.55 4 9L 4 7C 4 6.45 3.55 6 3 6ZM 9 6L 7 6C 6.45 6 6 6.45 6 7L 6 9C 6 9.55 6.45 10 7 10L 9 10C 9.55 10 10 9.55 10 9L 10 7C 10 6.45 9.55 6 9 6ZM 15 6L 13 6C 12.45 6 12 6.45 12 7L 12 9C 12 9.55 12.45 10 13 10L 15 10C 15.55 10 16 9.55 16 9L 16 7C 16 6.45 15.55 6 15 6ZM 3 12L 1 12C 0.45 12 0 12.45 0 13L 0 15C 0 15.55 0.45 16 1 16L 3 16C 3.55 16 4 15.55 4 15L 4 13C 4 12.45 3.55 12 3 12ZM 9 12L 7 12C 6.45 12 6 12.45 6 13L 6 15C 6 15.55 6.45 16 7 16L 9 16C 9.55 16 10 15.55 10 15L 10 13C 10 12.45 9.55 12 9 12ZM 15 12L 13 12C 12.45 12 12 12.45 12 13L 12 15C 12 15.55 12.45 16 13 16L 15 16C 15.55 16 16 15.55 16 15L 16 13C 16 12.45 15.55 12 15 12Z"/>
</defs>
</svg>
