<svg width="10" height="13" viewBox="0 0 10 13" version="1.1" xmlns="http://www.w3.org/2000/svg" xmlns:xlink="http://www.w3.org/1999/xlink">
<title>if_https_326657</title>
<desc>Created using Figma</desc>
<g id="Canvas" transform="translate(-2497 244)">
<g id="if_https_326657">
<g id="Page 1">
<g id="Core">
<g id="https">
<g id="Shape">
<use xlink:href="#path0_fill" transform="translate(2497 -244)" fill="#219653"/>
</g>
</g>
</g>
</g>
</g>
</g>
<defs>
<path id="path0_fill" fill-rule="evenodd" d="M 8.75 4.33333L 8.125 4.33333L 8.125 3.09524C 8.125 1.3619 6.75 0 5 0C 3.25 0 1.875 1.3619 1.875 3.09524L 1.875 4.33333L 1.25 4.33333C 0.5625 4.33333 0 4.89048 0 5.57143L 0 11.7619C 0 12.4429 0.5625 13 1.25 13L 8.75 13C 9.4375 13 10 12.4429 10 11.7619L 10 5.57143C 10 4.89048 9.4375 4.33333 8.75 4.33333ZM 5 9.90476C 4.3125 9.90476 3.75 9.34762 3.75 8.66667C 3.75 7.98571 4.3125 7.42857 5 7.42857C 5.6875 7.42857 6.25 7.98571 6.25 8.66667C 6.25 9.34762 5.6875 9.90476 5 9.90476ZM 6.9375 4.33333L 3.0625 4.33333L 3.0625 3.09524C 3.0625 2.04286 3.9375 1.17619 5 1.17619C 6.0625 1.17619 6.9375 2.04286 6.9375 3.09524L 6.9375 4.33333Z"/>
</defs>
</svg>
