<svg width="16" height="16" viewBox="0 0 16 16" version="1.1" xmlns="http://www.w3.org/2000/svg" xmlns:xlink="http://www.w3.org/1999/xlink">
<title>Group.svg</title>
<desc>Created using Figma</desc>
<g id="Canvas" transform="translate(-315 192)">
<g id="Group">
<g id="Vector">
<use xlink:href="#path0_fill" transform="translate(321.621 -185.379)" fill="#FFFFFF"/>
</g>
<g id="Vector">
<use xlink:href="#path1_fill" transform="translate(315 -192)" fill="#FFFFFF"/>
</g>
</g>
</g>
<defs>
<path id="path0_fill" d="M 1.37897 2.75778C 2.14056 2.75778 2.75795 2.14043 2.75795 1.37889C 2.75795 0.617349 2.14056 0 1.37897 0C 0.617388 0 0 0.617349 0 1.37889C 0 2.14043 0.617388 2.75778 1.37897 2.75778Z"/>
<path id="path1_fill" d="M 15.6747 6.63336L 13.747 6.27201C 13.6299 5.8822 13.4763 5.50827 13.2864 5.15652L 14.4016 3.52614C 14.5049 3.37525 14.4837 3.14825 14.3543 3.01919L 12.9793 1.64394C 12.8499 1.51456 12.6232 1.49371 12.4723 1.59662L 10.8415 2.71244C 10.4795 2.51721 10.0939 2.36069 9.6922 2.24255L 9.33281 0.325281C 9.29872 0.145599 9.12366 -3.91316e-08 8.94066 -3.91316e-08L 6.9958 -3.91316e-08C 6.8128 -3.91316e-08 6.63774 0.145599 6.60365 0.325281L 6.24063 2.26142C 5.8551 2.37922 5.48545 2.53276 5.13731 2.72204L 3.52702 1.62045C 3.37612 1.51721 3.1491 1.53839 3.02004 1.66777L 1.64471 3.04302C 1.51532 3.1724 1.49447 3.39907 1.59739 3.54997L 2.70599 5.17009C 2.51935 5.5182 2.36812 5.88749 2.25229 6.27234L 0.32497 6.63336C 0.145608 6.66744 7.06937e-08 6.84249 7.06937e-08 7.02548L 7.06937e-08 8.97022C 7.06937e-08 9.15321 0.145608 9.32826 0.32497 9.36234L 2.25097 9.72336C 2.36845 10.1165 2.52332 10.4937 2.7146 10.8481L 1.61856 12.4504C 1.51532 12.6013 1.53649 12.8283 1.66589 12.9573L 3.04089 14.3326C 3.17028 14.4619 3.39697 14.4828 3.54787 14.3799L 5.14956 13.2836C 5.49405 13.4699 5.85973 13.6214 6.24129 13.7386L 6.60431 15.675C 6.6384 15.8544 6.81346 16 6.99646 16L 8.94132 16C 9.12433 16 9.29939 15.8544 9.33347 15.675L 9.69286 13.7571C 10.0903 13.64 10.4719 13.4854 10.8306 13.2935L 12.4528 14.4034C 12.6037 14.5066 12.8307 14.4854 12.9598 14.3561L 14.3348 12.9815C 14.4642 12.8521 14.485 12.6254 14.3821 12.4745L 13.2785 10.8617C 13.4734 10.503 13.6302 10.1214 13.7494 9.72336L 15.675 9.36234C 15.8544 9.32826 16 9.15321 16 8.97022L 16 7.02548C 16 6.84249 15.8541 6.66744 15.6747 6.63336ZM 7.99984 11.3372C 6.15723 11.3372 4.6631 9.84315 4.6631 7.99967C 4.6631 6.15751 6.15723 4.66314 7.99984 4.66314C 9.8431 4.66314 11.3376 6.15751 11.3376 7.99967C 11.3376 9.84315 9.84277 11.3372 7.99984 11.3372Z"/>
</defs>
</svg>
