<svg width="47" height="44" viewBox="0 0 47 44" version="1.1" xmlns="http://www.w3.org/2000/svg" xmlns:xlink="http://www.w3.org/1999/xlink">
<title>Page 1</title>
<desc>Created using Figma</desc>
<g id="Canvas" transform="translate(629 1475)">
<g id="Vector">
<g id="Vector">
<use xlink:href="#path0_fill" transform="translate(-623.39 -1456.03)" fill="#F9B54C"/>
</g>
</g>
<g id="Vector">
<g id="Vector">
<use xlink:href="#path1_fill" transform="translate(-628.23 -1445.83)" fill="#FF7058"/>
</g>
</g>
<g id="Vector">
<g id="Vector">
<use xlink:href="#path2_fill" transform="translate(-592.76 -1442.87)" fill="#4CDBC4"/>
</g>
</g>
<g id="Vector">
<g id="Vector">
<use xlink:href="#path3_fill" transform="translate(-609.57 -1470.51)" fill="#FFD05B"/>
</g>
</g>
<g id="Vector">
<g id="Vector">
<use xlink:href="#path4_fill" transform="translate(-609.61 -1475)" fill="#E6E9EE"/>
</g>
</g>
</g>
<defs>
<path id="path0_fill" d="M 34.8425 12.2903L 33.8189 10.873C 32.6378 9.21942 31.2598 7.72336 29.685 6.42414L 26.063 3.27454C 25.5906 2.84147 24.8425 2.92021 24.4488 3.43202C 24.0945 3.90446 24.1732 4.57375 24.6063 4.96745L 27.4016 7.29028C 27.4409 7.32965 27.4409 7.40839 27.4016 7.44776C 27.3622 7.48713 27.2835 7.48713 27.2047 7.44776L 22.7165 3.74698C 22.3228 3.43202 21.7323 3.35328 21.3386 3.62887C 21.6535 3.23517 21.6929 2.68399 21.378 2.25092C 21.378 2.21155 21.3386 2.21155 21.2992 2.17218C 20.9055 1.7391 20.1969 1.69973 19.7244 2.05407L 13.8189 6.22729C 13.7795 6.26666 13.7008 6.26666 13.6614 6.18792C 13.622 6.14855 13.622 6.06981 13.7008 6.03044L 19.0551 2.21154C 19.6063 1.81784 19.7244 1.03044 19.3307 0.479262C 18.937 -0.0325492 18.2283 -0.150659 17.6772 0.203671L 11.4961 4.49501C 12.2047 3.31391 12.6772 2.05406 12.5591 0.951702C 12.5197 0.400521 11.7717 0.124931 11.2205 0.321781C 10.9843 0.400522 10.7087 0.597371 10.5512 0.951702C 10.5512 0.951702 10.3543 2.64462 8.11024 3.9832C 5.82677 5.32178 5.23622 9.57375 5.23622 9.57375C 4.88189 11.1486 -4.42462e-15 14.4163 -4.42462e-15 14.4163L 3.77953 19.3375C 6.06299 17.8415 9.88189 16.4241 9.88189 16.4241L 11.5354 15.7942C 13.4252 15.0856 15.2362 14.1407 16.9291 12.9989L 19.685 11.1092L 22.9528 13.8651C 21.6142 13.4714 20.2756 13.3926 19.252 13.7863C 18.7402 13.9832 18.6614 14.7706 18.9764 15.243C 19.0945 15.4399 19.3701 15.6761 19.7638 15.7549C 19.7638 15.7549 21.4567 15.5186 23.3465 17.3297C 25.2362 19.1407 29.4882 18.6289 29.4882 18.6289C 31.1024 18.5501 35.5118 22.4084 35.5118 22.4084L 39.2913 17.4871C 37.2441 15.5974 34.8425 12.2903 34.8425 12.2903ZM 16.5748 10.558C 16.5354 10.5974 16.4567 10.5974 16.4173 10.5186C 16.378 10.4793 16.4173 10.4005 16.4567 10.3612L 17.7165 9.45564L 17.9134 9.61312L 16.5748 10.558ZM 15.5906 8.07769C 15.5512 8.11706 15.4724 8.11706 15.4331 8.03832C 15.3937 7.99895 15.3937 7.92021 15.4724 7.88084L 18.1102 6.03044C 18.1496 6.10918 18.189 6.18792 18.2283 6.22729L 15.5906 8.07769ZM 24.0157 11.306C 23.9764 11.3454 23.8976 11.3454 23.8583 11.306L 21.3386 9.25879C 21.2992 9.06194 21.2598 8.90446 21.1417 8.74698L 24.0157 11.1486C 24.0551 11.1486 24.0551 11.2273 24.0157 11.306ZM 25.3543 9.10131C 25.315 9.14068 25.2362 9.14068 25.1969 9.10131L 21.7323 6.22729C 21.7717 6.14855 21.7717 6.03044 21.7717 5.91233L 25.3543 8.90446C 25.3937 8.9832 25.3937 9.06194 25.3543 9.10131Z"/>
<path id="path1_fill" d="M 0 5.07874C 1.25984 8.26772 3.18898 11.1417 5.55118 13.5039L 13.1102 8.70079L 7.99213 -8.84924e-15L 0 5.07874Z"/>
<path id="path2_fill" d="M 7.04724 -8.84924e-15L -8.84924e-15 7.24409L 4.56693 11.378C 7.08661 9.09449 9.13386 6.29921 10.5512 3.14961L 7.04724 -8.84924e-15Z"/>
<path id="path3_fill" d="M 1.29921 20.6693C 1.88976 20.6299 2.36221 20.1181 2.36221 19.5276L 2.28346 15.9055C 2.28346 15.8268 2.32283 15.7874 2.40157 15.7874C 2.48031 15.7874 2.51968 15.8268 2.51968 15.9055L 2.67717 21.6929C 2.67717 22.2835 3.11024 22.7953 3.66142 22.874C 4.37008 22.9528 5 22.4016 4.96063 21.6929L 4.84252 16.4173C 4.84252 16.3386 4.88189 16.2992 4.96063 16.2992C 5.03937 16.2992 5.07874 16.3386 5.07874 16.4173L 5.23622 23.3071C 5.23622 23.9764 5.7874 24.4882 6.45669 24.4882C 6.49606 24.4882 6.53543 24.4882 6.5748 24.4882C 7.16535 24.3701 7.55905 23.8189 7.55905 23.2283L 7.3622 15.9843C 7.3622 15.9055 7.40158 15.8661 7.48032 15.8661C 7.55906 15.8661 7.59842 15.9055 7.59842 15.9843L 7.79527 22.5591C 7.79527 23.2283 8.38583 23.7795 9.09449 23.7402C 9.72441 23.7008 10.2362 23.1496 10.2362 22.5197L 10.1181 15.0394C 10.7087 16.2992 11.4961 17.3622 12.4803 17.874C 12.9921 18.1496 13.5827 17.6772 13.7402 17.126C 13.8189 16.8898 13.7795 16.5354 13.5827 16.2205C 13.5827 16.2205 12.2835 15.0787 12.4016 12.4803C 12.5197 9.88189 9.33071 7.00787 9.33071 7.00787C 8.22835 5.82677 8.18898 -2.21231e-15 8.18898 -2.21231e-15L 2.00787 0.393701C 2.00787 3.11024 1.06299 7.08661 1.06299 7.08661L 0.66929 8.8189C 0.236219 10.7874 8.84924e-15 12.8346 8.84924e-15 14.8425L 0.0393695 19.6063C 0.118109 20.1969 0.669291 20.7087 1.29921 20.6693Z"/>
<path id="path4_fill" d="M 10.2362 0.629921C 8.4252 0.23622 6.53543 0 4.6063 0C 3.07087 0 1.5748 0.15748 0.157481 0.393701L -4.42462e-15 8.8189L 10.0787 9.37008L 10.2362 0.629921Z"/>
</defs>
</svg>
