<svg width="32" height="32" viewBox="0 0 32 32" version="1.1" xmlns="http://www.w3.org/2000/svg" xmlns:xlink="http://www.w3.org/1999/xlink">
<title>AAA</title>
<desc>Created using Figma</desc>
<g id="Canvas" transform="translate(-2477 501)">
<g id="Group 6">
<g id="R Multicolor">
<g id="Group">
<g id="Vector">
<use xlink:href="#path0_fill" transform="translate(2477 -501)" fill="#E2E4E5"/>
</g>
<g id="Vector">
<use xlink:href="#path1_fill" transform="translate(2481.65 -501)" fill="#FFFFFF"/>
</g>
<g id="Vector">
<use xlink:href="#path2_fill" transform="translate(2477.28 -486.455)" fill="#DF2C2C"/>
</g>
<g id="Vector">
<use xlink:href="#path3_fill" transform="translate(2492.11 -500.23)" fill="#E2E4E5"/>
</g>
<g id="Vector">
<use xlink:href="#path4_fill" transform="translate(2492.11 -500.23)" fill="#FFFFFF"/>
</g>
<g id="Vector">
<use xlink:href="#path5_fill" transform="translate(2477.28 -486.455)" fill="#FA5655"/>
</g>
</g>
</g>
</g>
</g>
<defs>
<path id="path0_fill" d="M 30.2424 21.7511C 28.6729 20.1816 26.4514 19.6691 24.4509 20.2021L 13.5834 9.33518C 14.4569 6.87069 13.9154 4.01669 11.9434 2.0442C 9.96988 0.0707052 7.11388 -0.470293 4.64788 0.405705L 9.82188 5.57969L 9.82188 8.40818L 8.40788 9.82218L 5.57938 9.82218L 0.405386 4.64819C -0.470114 7.11419 0.0708854 9.97018 2.04388 11.9437C 4.01838 13.9182 6.87688 14.4587 9.34388 13.5807L 20.2079 24.4446C 19.6749 26.4456 20.1874 28.6671 21.7569 30.2366C 24.0999 32.5796 27.8989 32.5796 30.2424 30.2366C 32.5859 27.8936 32.5859 24.0946 30.2424 21.7511ZM 26.9329 29.4766L 23.4504 28.5436L 22.5174 25.0611L 25.0669 22.5116L 28.5494 23.4446L 29.4824 26.9271L 26.9329 29.4766Z"/>
<path id="path1_fill" d="M 19.803 20.2021L 8.9355 9.33518C 9.809 6.87069 9.2675 4.01669 7.2955 2.0442C 5.322 0.0707052 2.466 -0.470293 7.17163e-07 0.405705L 5.174 5.57969L 5.174 8.40818L 4.4965 9.08568L 19.1705 23.7596L 20.419 22.5111L 23.9015 23.4441L 24.8345 26.9266L 23.586 28.1751L 25.6195 30.2086C 27.936 27.8636 27.929 24.0851 25.5945 21.7506C 24.025 20.1816 21.8035 19.6691 19.803 20.2021Z"/>
<path id="path2_fill" d="M 15.117 7.9951C 15.4955 7.6166 15.6445 7.0631 15.506 6.54561C 15.372 6.04511 15.5015 5.48861 15.8945 5.09611L 17.3085 3.68211C 17.504 3.48661 17.504 3.17012 17.3085 2.97512L 14.48 0.146624C 14.2845 -0.0488751 13.968 -0.0488751 13.773 0.146624L 12.359 1.56062C 11.9665 1.95312 11.41 2.08262 10.9095 1.94912C 10.3915 1.81062 9.83903 1.95912 9.46003 2.33812L 0.338033 11.4601C -1.42997 13.2281 4.22703 18.8846 5.99503 17.1171L 15.117 7.9951Z"/>
<path id="path3_fill" d="M 14.9825 -2.21252e-07L 8.972 3.18199L 8.6185 5.65698L 6.10351e-08 14.2755L 2.121 16.397L 10.74 7.77798L 13.1795 7.45998L 16.4365 1.454L 14.9825 -2.21252e-07Z"/>
<path id="path4_fill" d="M 14.9825 -2.21252e-07L 8.972 3.18199L 8.6185 5.65698L 6.10351e-08 14.2755L 1.172 15.4475L 15.801 0.818498L 14.9825 -2.21252e-07Z"/>
<path id="path5_fill" d="M 14.4802 0.146624C 14.2847 -0.0488751 13.9687 -0.0488751 13.7732 0.146624L 12.3587 1.56112C 11.9662 1.95412 11.4097 2.08312 10.9092 1.94912C 10.3912 1.81062 9.83871 1.95962 9.45971 2.33862L 0.337713 11.4601C -0.569287 12.3671 0.479713 14.2971 1.95371 15.7236L 16.0057 1.67212L 14.4802 0.146624Z"/>
</defs>
</svg>
