<svg width="2132" height="335" viewBox="0 0 2132 335" fill="none" xmlns="http://www.w3.org/2000/svg">
<path d="M61.4278 87.7053L151.682 140.672V175.755L0 87.7053L151.682 0V35.0821L61.4278 87.7053ZM415.922 87.7053L325.324 34.7382V0L477.35 87.7053L325.324 175.755V140.329L415.922 87.7053Z" transform="translate(0 95.96)" fill="white"/>
<path fill-rule="evenodd" clip-rule="evenodd" d="M47.0535 0H79.8962L32.8428 176H0L47.0535 0Z" transform="translate(196.982 96)" fill="white"/>
<path d="M160.605 0V266.555H128.346V244.199C121.483 252.225 113.018 258.53 102.952 263.116C93.114 267.702 82.2469 269.995 70.3503 269.995C57.081 269.995 45.0699 266.785 34.3172 260.365C23.5645 253.944 15.0996 245.002 8.92248 233.537C2.97416 221.843 0 208.429 0 193.296C0 177.933 3.20294 164.634 9.60882 153.398C16.0147 141.934 24.8228 133.22 36.0331 127.259C47.2434 121.297 59.9407 118.316 74.1252 118.316C84.8779 118.316 95.1731 120.609 105.011 125.195C115.077 129.552 122.97 135.628 128.69 143.424V0H160.605ZM80.3023 242.479C92.6565 242.479 103.066 239.155 111.531 232.505C120.225 225.856 125.83 216.913 128.346 205.678V178.85C125.601 168.532 119.767 160.163 110.845 153.742C101.922 147.093 91.7414 143.768 80.3023 143.768C71.6086 143.768 63.6012 145.946 56.2802 150.303C48.9592 154.43 43.1253 160.277 38.7785 167.844C34.4316 175.181 32.2582 183.551 32.2582 192.952C32.2582 202.124 34.4316 210.493 38.7785 218.06C43.1253 225.626 48.9592 231.588 56.2802 235.945C63.6012 240.301 71.6086 242.479 80.3023 242.479ZM282.353 242.479C294.249 242.479 305.803 238.352 317.013 230.098L331.77 253.83C324.22 258.874 315.984 262.887 307.061 265.868C298.367 268.619 289.903 269.995 281.666 269.995C265.88 269.995 252.039 266.785 240.143 260.365C228.475 253.715 219.438 244.658 213.032 233.193C206.626 221.728 203.423 208.773 203.423 194.328C203.423 180.341 206.855 167.615 213.718 156.15C220.811 144.456 230.419 135.284 242.545 128.635C254.67 121.756 267.94 118.316 282.353 118.316C300.884 118.316 316.327 123.819 328.681 134.825C341.264 145.602 349.843 160.736 354.419 180.226L241.858 219.779C245.977 226.887 251.467 232.505 258.331 236.632C265.423 240.53 273.43 242.479 282.353 242.479ZM279.951 143.768C266.91 143.768 256.157 148.354 247.692 157.526C239.227 166.697 234.995 178.392 234.995 192.608C234.995 196.047 235.109 198.684 235.338 200.518L318.043 169.908C314.611 162.112 309.692 155.806 303.286 150.991C297.109 146.176 289.331 143.768 279.951 143.768ZM524.249 124.163L448.408 270.683H446.692L367.763 124.163H405.855L448.751 214.964L488.559 124.163H524.249ZM542.486 248.327C542.486 243.282 544.316 238.925 547.977 235.257C551.637 231.588 555.869 229.754 560.673 229.754C565.02 229.754 569.024 231.588 572.685 235.257C576.574 238.925 578.518 243.282 578.518 248.327C578.518 253.6 576.689 257.957 573.028 261.396C569.368 264.836 565.249 266.555 560.673 266.555C555.869 266.555 551.637 264.836 547.977 261.396C544.316 257.957 542.486 253.6 542.486 248.327Z" transform="translate(601.867)" fill="white"/>
<path d="M31.915 0V266.555H0V0H31.915ZM233.317 124.163V266.555H201.402V243.167C196.369 249.817 189.048 256.008 179.439 261.74C169.83 267.243 158.963 269.995 146.838 269.995C133.34 269.995 121.1 267.129 110.118 261.396C99.3655 255.435 90.7862 246.836 84.3803 235.601C78.2032 224.365 75.1147 210.951 75.1147 195.359C75.1147 179.767 78.3176 166.239 84.7235 154.774C91.3581 143.08 100.166 134.138 111.148 127.947C122.358 121.526 134.712 118.316 148.21 118.316C160.336 118.316 170.86 120.953 179.782 126.227C188.705 131.501 195.911 138.38 201.402 146.863L203.804 124.163H233.317ZM155.417 243.511C167.085 243.511 177.037 240.301 185.273 233.881C193.738 227.231 199.114 218.289 201.402 207.053V178.85C198.657 168.761 192.937 160.621 184.243 154.43C175.55 148.01 165.598 144.8 154.387 144.8C145.923 144.8 138.03 146.863 130.709 150.991C123.616 155.118 117.897 160.965 113.55 168.532C109.432 175.869 107.373 184.239 107.373 193.64C107.373 202.811 109.546 211.181 113.893 218.747C118.24 226.314 124.074 232.39 131.395 236.976C138.716 241.333 146.723 243.511 155.417 243.511ZM424.092 124.163L332.465 335H300.893L333.495 261.74L267.606 124.163H303.639L349.624 225.626L394.579 124.163H424.092ZM441.744 193.984C441.744 179.997 445.061 167.271 451.696 155.806C458.559 144.112 467.94 134.94 479.836 128.291C491.962 121.641 505.574 118.316 520.674 118.316C535.773 118.316 549.157 121.641 560.825 128.291C572.721 134.94 581.873 143.997 588.279 155.462C594.913 166.927 598.231 179.767 598.231 193.984C598.231 208.2 594.913 221.155 588.279 232.849C581.873 244.314 572.721 253.371 560.825 260.021C548.928 266.67 535.316 269.995 519.987 269.995C505.116 269.995 491.733 266.899 479.836 260.708C467.94 254.288 458.559 245.346 451.696 233.881C445.061 222.416 441.744 209.117 441.744 193.984ZM474.002 194.328C474.002 203.27 475.947 211.525 479.836 219.091C483.954 226.658 489.445 232.62 496.308 236.976C503.401 241.333 511.179 243.511 519.644 243.511C532.914 243.511 543.895 238.811 552.589 229.41C561.282 220.009 565.629 208.315 565.629 194.328C565.629 180.341 561.282 168.646 552.589 159.245C543.895 149.615 532.914 144.8 519.644 144.8C510.95 144.8 503.172 147.093 496.308 151.679C489.445 156.035 483.954 161.997 479.836 169.564C475.947 177.13 474.002 185.385 474.002 194.328ZM773.22 124.163V266.555H744.393L742.334 239.384C737.53 249.014 730.095 256.925 720.028 263.116C709.962 269.078 698.751 272.059 686.397 272.059C673.364 272.059 662.611 268.161 654.146 260.365C645.903 252.339 641.556 242.021 641.106 229.41V124.163H673.014V218.06C673.471 226.085 675.766 232.505 679.884 237.32C684.231 241.906 690.63 244.314 699.102 244.543C706.88 244.543 713.973 242.25 720.378 237.664C726.784 232.849 731.818 226.314 735.478 218.06C739.36 209.805 741.305 200.633 741.305 190.544V124.163H773.22ZM874.763 61.5657V124.507H913.542V149.959H874.763V266.555H842.498V149.959H816.424V124.507H842.498V61.5657H874.763Z" transform="translate(1218.46)" fill="#27AE60"/>
</svg>
